<?xml version="1.0" encoding="UTF-8"?>
<svg width="67px" height="20px" viewBox="0 0 67 20" version="1.1" xmlns="http://www.w3.org/2000/svg" xmlns:xlink="http://www.w3.org/1999/xlink">
    <title>Amazon_logo</title>
    <g id="v2" stroke="none" stroke-width="1" fill="none" fill-rule="evenodd">
        <g id="JT-MPR-SEO-Homepage-V2" transform="translate(-985.000000, -703.000000)" fill="#002D6B">
            <g id="Group-41" transform="translate(247.000000, 694.000000)">
                <g id="Group-28" transform="translate(336.000000, 0.000000)">
                    <g id="Amazon_logo" transform="translate(402.000000, 9.000000)">
                        <path d="M41.5654895,15.640617 C37.6720063,18.4833169 32.0286392,20 27.1698079,20 C20.3569391,20 14.2236103,17.5039723 9.58350994,13.3525927 C9.21895222,13.0261425 9.54559464,12.5812502 9.98306645,12.8354736 C14.9906397,15.7215073 21.1823013,17.4577489 27.578114,17.4577489 C31.8915659,17.4577489 36.6366587,16.5737375 40.999694,14.7392744 C41.6588152,14.461936 42.2100275,15.1668344 41.5654895,15.640617" id="path8"></path>
                        <path d="M43.1841291,13.8061533 C42.6883278,13.1763686 39.8943528,13.5085941 38.6402729,13.6559292 C38.2582141,13.7021526 38.1998873,13.3728148 38.5440281,13.1359218 C40.769293,11.5845718 44.4207113,12.0323551 44.846515,12.5523599 C45.2723181,13.0752556 44.7356897,16.7008525 42.6445815,18.4313143 C42.3237701,18.6970942 42.0175412,18.555539 42.1604489,18.2030895 C42.6299996,17.0417429 43.6828456,14.4388269 43.1841291,13.8061533" id="path10"></path>
                        <path d="M38.7277669,2.18402387 L38.7277669,0.676007547 C38.7277669,0.447782917 38.9027548,0.29467026 39.1127408,0.29467026 L45.9285228,0.29467026 C46.1472591,0.29467026 46.322247,0.450672212 46.322247,0.676007547 L46.322247,1.96735522 C46.3193325,2.18402387 46.135593,2.46713808 45.8089473,2.91492066 L42.2771066,7.90986513 C43.589518,7.87808919 44.9748401,8.07164441 46.1647588,8.73609664 C46.433073,8.88632007 46.5059851,9.10587795 46.5264,9.32254886 L46.5264,10.9316781 C46.5264,11.1512353 46.2814165,11.4083471 46.0247677,11.2754581 C43.9278271,10.1863342 41.1426009,10.0678887 38.8240097,11.2870146 C38.5877764,11.4141276 38.3398771,11.1599029 38.3398771,10.9403437 L38.3398771,9.41210539 C38.3398771,9.1665475 38.3427916,8.74765183 38.5906909,8.37498156 L42.6824954,2.56247287 L39.1214897,2.56247287 C38.9027548,2.56247287 38.7277669,2.40936147 38.7277669,2.18402387" id="path12"></path>
                        <path d="M13.8648836,11.5932387 L11.7912758,11.5932387 C11.5929572,11.5787959 11.4354677,11.4314608 11.4208844,11.2436788 L11.4208844,0.702009875 C11.4208844,0.491118625 11.5987895,0.323559891 11.8204403,0.323559891 L13.7540576,0.323559891 C13.9552961,0.332220807 14.1156995,0.485338973 14.1302834,0.676007547 L14.1302834,2.05402452 L14.1681973,2.05402452 C14.6727455,0.72223036 15.6205965,0.101112384 16.8980098,0.101112384 C18.1958373,0.101112384 19.0066157,0.72223036 19.589909,2.05402452 C20.0915414,0.72223036 21.2318793,0.101112384 22.4538803,0.101112384 C23.3229875,0.101112384 24.2737557,0.456449607 24.8541332,1.25379181 C25.5103379,2.14069036 25.3761797,3.4291488 25.3761797,4.55871826 L25.3732652,11.2119029 C25.3732652,11.4227932 25.1953601,11.5932387 24.9737094,11.5932387 L22.9030161,11.5932387 C22.6959486,11.5787959 22.5297102,11.4141276 22.5297102,11.2119029 L22.5297102,5.6247294 C22.5297102,5.17983604 22.570538,4.07049032 22.47138,3.64870668 C22.3168077,2.94092306 21.8530899,2.74158553 21.2522956,2.74158553 C20.7506632,2.74158553 20.2257001,3.07381165 20.0127976,3.60537429 C19.799895,4.13693575 19.8203106,5.0267214 19.8203106,5.6247294 L19.8203106,11.2119029 C19.8203106,11.4227932 19.6424062,11.5932387 19.4207541,11.5932387 L17.3500642,11.5932387 C17.1400781,11.5787959 16.9767556,11.4141276 16.9767556,11.2119029 L16.9738411,5.6247294 C16.9738411,4.44893925 17.1692419,2.71847462 15.6964285,2.71847462 C14.206112,2.71847462 14.2644415,4.40560361 14.2644415,5.6247294 L14.2644415,11.2119029 C14.2644415,11.4227932 14.0865364,11.5932387 13.8648856,11.5932387" id="path14"></path>
                        <path d="M52.1901793,0.101112384 C55.2670525,0.101112384 56.9323536,2.71847462 56.9323536,6.04651191 C56.9323536,9.26187997 55.0920612,11.8127966 52.1901793,11.8127966 C49.1687185,11.8127966 47.5238303,9.19543448 47.5238303,5.93384368 C47.5238303,2.65202913 49.1891334,0.101112384 52.1901793,0.101112384 M52.2076771,2.25335972 C50.6794493,2.25335972 50.5831922,4.31604721 50.5831922,5.60161856 C50.5831922,6.89007707 50.5627895,9.64032883 52.1901793,9.64032883 C53.7971522,9.64032883 53.8729815,7.42163965 53.8729815,6.06962169 C53.8729815,5.17983604 53.8350668,4.11671307 53.5638341,3.27314692 C53.3305166,2.53936316 52.8668003,2.25335972 52.2076771,2.25335972" id="path16"></path>
                        <path d="M60.9220816,11.5932387 L58.8572234,11.5932387 C58.6501532,11.5787959 58.4839148,11.4141276 58.4839148,11.2119029 L58.4810003,0.667340857 C58.4984993,0.473783054 58.6705721,0.323559891 58.8805568,0.323559891 L60.8025101,0.323559891 C60.983329,0.332220807 61.132069,0.45356144 61.1729015,0.61822995 L61.1729015,2.23024662 L61.2108134,2.23024662 C61.7911922,0.788675849 62.6048838,0.101112384 64.0368694,0.101112384 C64.9672227,0.101112384 65.8742446,0.433338765 66.4575379,1.34334821 C67,2.1869131 67,3.60537429 67,4.62516149 L67,11.2610146 C66.9766693,11.4459036 66.8045965,11.5932387 66.6004462,11.5932387 L64.521004,11.5932387 C64.3314322,11.5787959 64.1739427,11.4401276 64.1535298,11.2610146 L64.1535298,5.5351732 C64.1535298,4.38249383 64.2876866,2.69536265 62.8557003,2.69536265 C62.3511527,2.69536265 61.8874337,3.03047926 61.6570328,3.53892768 C61.3653871,4.18315863 61.3274725,4.82449902 61.3274725,5.5351732 L61.3274725,11.2119029 C61.324558,11.4227932 61.1437357,11.5932387 60.922085,11.5932387" id="path18"></path>
                        <path d="M33.2943878,6.55785069 C33.2943878,7.35808113 33.3148027,8.02542166 32.9064973,8.73609664 C32.5769371,9.31388263 32.0519733,9.66921913 31.4715972,9.66921913 C30.6754013,9.66921913 30.2087664,9.06832209 30.2087664,8.18142368 C30.2087664,6.43073837 31.7924073,6.11295747 33.2943878,6.11295747 L33.2943878,6.55785069 M35.3854953,11.5643497 C35.2484227,11.6856842 35.0501007,11.6943504 34.895529,11.6134621 C34.2072414,11.047234 34.0818341,10.784343 33.7056103,10.2441148 C32.5681875,11.3939042 31.760325,11.7376849 30.2875095,11.7376849 C28.5405455,11.7376849 27.1843898,10.6716727 27.1843898,8.53676283 C27.1843898,6.86985433 28.0943289,5.73450847 29.3950729,5.17983604 C30.5208283,4.68871782 32.0928018,4.60205178 33.2943878,4.4662727 L33.2943878,4.20049201 C33.2943878,3.71226288 33.3323024,3.13447861 33.0406554,2.71269836 C32.7898396,2.33424823 32.3057043,2.17824648 31.8769847,2.17824648 C31.0866212,2.17824648 30.3837544,2.57980632 30.2116816,3.41181536 C30.1766842,3.59670754 30.0396115,3.77870949 29.8500391,3.78737618 L27.8405945,3.57359457 C27.6714383,3.53604064 27.4818691,3.40025937 27.5314491,3.14314749 C27.992251,0.728010012 30.1971011,0 32.168631,0 C33.1777294,0 34.4959718,0.265781292 35.2921677,1.02267795 C36.301264,1.95579924 36.2050219,3.2009241 36.2050219,4.55582903 L36.2050219,7.75675274 C36.2050219,8.71876485 36.6074942,9.14054485 36.9866345,9.6605529 C37.1178775,9.8454419 37.1470419,10.0678887 36.9778769,10.206557 C36.5549897,10.5561182 35.8025402,11.206125 35.3884024,11.5701283 L35.3854879,11.5643411" id="path28"></path>
                        <path d="M6.109999,6.55785069 C6.109999,7.35808113 6.13041223,8.02542166 5.7221088,8.73609664 C5.39254619,9.31388263 4.87049907,9.66921913 4.28720551,9.66921913 C3.49100981,9.66921913 3.02729243,9.06832209 3.02729243,8.18142368 C3.02729243,6.43073837 4.61093343,6.11295747 6.109999,6.11295747 L6.109999,6.55785069 M8.20110498,11.5643497 C8.06403169,11.6856842 7.86570968,11.6943504 7.71113733,11.6134621 C7.02285303,11.047234 6.90035961,10.784343 6.52121921,10.2441148 C5.38379679,11.3939042 4.57885397,11.7376849 3.10311968,11.7376849 C1.35907156,11.7376849 0,10.6716727 0,8.53676283 C0,6.86985433 0.91285397,5.73450847 2.21068129,5.17983604 C3.33643733,4.68871782 4.90841323,4.60205178 6.109999,4.4662727 L6.109999,4.20049201 C6.109999,3.71226288 6.14791323,3.13447861 5.85918269,2.71269836 C5.60544833,2.33424823 5.12131652,2.17824648 4.69551108,2.17824648 C3.90515021,2.17824648 3.19936363,2.57980632 3.02729243,3.41181536 C2.99229404,3.59670754 2.85522021,3.77870949 2.66856726,3.78737618 L0.656205123,3.57359457 C0.487049681,3.53604064 0.300395567,3.40025937 0.347059098,3.14314749 C0.810777594,0.728010012 3.01270947,0 4.98424276,0 C5.99333853,0 7.31158149,0.265781292 8.10777733,1.02267795 C9.11687571,1.95579924 9.02063088,3.2009241 9.02063088,4.55582903 L9.02063088,7.75675274 C9.02063088,8.71876485 9.42310524,9.14054485 9.80224618,9.6605529 C9.93640296,9.8454419 9.96556739,10.0678887 9.79641048,10.206557 C9.37352323,10.5561182 8.62107571,11.206125 8.20693532,11.5701283 L8.20110632,11.5643411" id="path30"></path>
                    </g>
                </g>
            </g>
        </g>
    </g>
</svg>