<?xml version="1.0" encoding="UTF-8"?>
<svg width="100px" height="23px" viewBox="0 0 100 23" version="1.1" xmlns="http://www.w3.org/2000/svg" xmlns:xlink="http://www.w3.org/1999/xlink">
    <title>Boeing_full_logo</title>
    <g id="v2" stroke="none" stroke-width="1" fill="none" fill-rule="evenodd">
        <g id="JT-MPR-SEO-Homepage-V2" transform="translate(-583.000000, -699.000000)" fill="#002D6B" fill-rule="nonzero">
            <g id="Group-41" transform="translate(247.000000, 694.000000)">
                <g id="Group-28" transform="translate(336.000000, 0.000000)">
                    <g id="Boeing_full_logo" transform="translate(0.000000, 5.000000)">
                        <path d="M15.2178364,13.9741555 C16.8856629,10.3714711 15.6846655,6.08338535 12.392552,3.8866547 C13.6724825,2.56341196 15.0585824,1.25203686 16.5213601,0 C14.814755,1.02070003 13.1950581,2.18175952 11.678858,3.47128703 C8.28399551,1.69038623 4.11044731,2.58384132 1.73046893,5.60099501 C-0.649509461,8.61814869 -0.566233174,12.910026 1.92897266,15.8314424 C0.401313669,19.1603176 0.159483481,21.8305384 1.48070207,22.7324797 C2.9257849,23.699693 6.06367904,21.9432811 7.96882906,19.0891117 C7.96882906,19.0891117 5.05507021,21.7296634 3.45663165,21.1244134 C2.47161601,20.7505824 2.47161601,19.2315235 3.27968273,17.0597439 C6.44229999,19.3939032 10.8216874,19.0720208 13.6134995,16.3002145 L13.8966178,16.8342586 C17.3766132,16.5494351 27.7635147,16.2705453 27.7635147,16.2705453 C27.7399215,15.778038 20.8625069,16.2527439 15.2178364,13.9741555 Z M0.955739048,10.585942 C0.958301859,8.18272451 2.17362033,5.94522 4.1826268,4.64499439 C6.19163328,3.34476878 8.71944351,3.15972669 10.8943845,4.15367678 C7.44654454,7.18761026 4.56778492,10.8192903 2.39493814,14.8760967 C1.45853516,13.6445869 0.952609797,12.1364425 0.955739048,10.585942 L0.955739048,10.585942 Z M7.98062565,17.6531391 C6.40349142,17.6561533 4.87161703,17.1229364 3.63358057,16.1400012 C5.02557872,12.9832069 7.85676141,8.74645654 11.7201461,4.60464741 C14.7232541,6.50705208 15.8443102,10.3640045 14.3330918,13.5943907 C13.1137459,13.0438503 11.9873584,12.3050862 10.9946556,11.4048097 L13.1121443,15.404207 C11.7868596,16.8390255 9.92754766,17.6538803 7.98062565,17.6531391 L7.98062565,17.6531391 Z" id="Shape"></path>
                        <polygon id="Path" points="62.8524851 9.8501478 64.1501105 8.11153738 59.6202182 8.11153738 60.7349964 6.62214756 65.270787 6.62214756 66.5743107 4.88353713 57.5263227 4.88353713 51.3036191 13.1908907 60.3516071 13.1908907 61.6492325 11.4522803 57.1193402 11.4522803 58.3166945 9.8501478 62.8524851 9.8501478"></polygon>
                        <polygon id="Path" points="69.1341717 4.88353713 62.9114681 13.1908907 67.4295638 13.1908907 73.6463691 4.88353713 69.1341717 4.88353713"></polygon>
                        <polygon id="Path" points="84.1748297 4.88353713 81.0192407 9.09655216 80.0519199 4.88353713 76.5247382 4.88353713 70.3020345 13.1908907 73.286573 13.1908907 76.4126705 9.01941244 77.374093 13.1908907 80.9366645 13.1908907 87.1593681 4.88353713 84.1748297 4.88353713"></polygon>
                        <path d="M98.9323695,4.88353713 L91.6774638,4.88353713 C90.4826761,4.88213563 89.3570847,5.44722178 88.6398407,6.40852989 L84.894422,11.4107435 C84.7482104,11.603246 84.6694049,11.8390001 84.6702794,12.0812656 C84.6702794,12.6950619 85.1631555,13.1935597 85.7732683,13.1968317 L93.0281739,13.1968317 C94.2248179,13.1991605 95.3525949,12.6340744 96.0716953,11.6718318 L96.9741348,10.485067 L98.0240317,10.485067 L99.3334537,8.70491977 L93.7772576,8.70491977 L92.0077685,11.0487802 C91.8214938,11.2994235 91.5284756,11.4468151 91.2173966,11.4463465 L89.9374661,11.4463465 C89.7778467,11.4463465 89.6484496,11.3161699 89.6484496,11.1555891 C89.6479602,11.093129 89.6687794,11.0323895 89.7074325,10.9835082 L92.6565812,7.00784612 C92.8422346,6.75645627 93.1356531,6.60886335 93.446953,6.61027991 L94.7268835,6.61027991 C94.8865029,6.61027991 95.0159001,6.74045642 95.0159001,6.90103728 C95.0142587,6.96312785 94.9936659,7.02320654 94.9569171,7.07311818 L94.4732567,7.71990499 L98.9795558,7.71990499 L99.775826,6.65181668 C100.029578,6.31522839 100.07134,5.86288534 99.8835483,5.48503911 C99.6957563,5.10719288 99.310991,4.86939821 98.8910814,4.87165336 L98.9323695,4.88353713 Z" id="Path"></path>
                        <path d="M53.8222356,5.99909604 C53.8222356,5.38626703 53.3283703,4.88946374 52.7192104,4.88946374 L45.4643048,4.88946374 C44.2676607,4.88713497 43.1398838,5.45222108 42.4207834,6.41446372 L38.6753646,11.4166773 C38.4263971,11.7543409 38.3872736,12.2041419 38.5741641,12.5801743 C38.7610547,12.9562068 39.1422151,13.1946 39.5601092,13.1968317 L46.8150148,13.1968317 C48.0116589,13.1991605 49.1394358,12.6340744 49.8585362,11.6718318 L53.603955,6.66961815 C53.7476665,6.47615313 53.8243311,6.24060509 53.8222356,5.99909604 Z M48.7791478,7.08498583 L45.8299992,11.0547141 C45.6443457,11.3061039 45.3509272,11.4536968 45.0396274,11.4522904 L43.7361037,11.4522904 C43.6276888,11.4511784 43.5290061,11.3891266 43.480519,11.2915684 C43.432032,11.1940102 43.4418974,11.0773574 43.5060701,10.989442 L46.4552187,7.01377994 C46.6427058,6.76460036 46.9349481,6.61759911 47.2455905,6.61621373 L48.525521,6.61621373 C48.6851405,6.61621373 48.8145376,6.74639024 48.8145376,6.90697111 C48.8128962,6.96906167 48.7923035,7.02914037 48.7555546,7.079052 L48.7791478,7.08498583 Z" id="Shape"></path>
                        <path d="M36.758418,9.23896393 C37.6351665,9.03896676 38.4127881,8.53215065 38.9525846,7.80891235 L39.813736,6.66368433 C40.0674879,6.32709603 40.1092503,5.87475298 39.9214583,5.49690676 C39.7336663,5.11906053 39.348901,4.88126586 38.9289914,4.88352101 L29.774834,4.88352101 L23.5521304,13.1908979 L33.0247958,13.1908979 C34.2214399,13.1932267 35.3492168,12.6281406 36.0683172,11.6658979 L36.9471635,10.4791331 C37.0631928,10.325684 37.1254176,10.1378852 37.1241124,9.94508898 C37.1236506,9.66201804 36.990252,9.39581391 36.7643163,9.22709628 L36.758418,9.23896393 Z M32.5706269,10.3189199 L32.0102887,11.0665817 C31.824014,11.317225 31.5309958,11.4646166 31.2199169,11.464149 L29.3737498,11.464149 L30.5534093,9.86201545 L32.3228985,9.86201545 C32.4825179,9.86201545 32.611915,9.99219196 32.611915,10.1527728 C32.611915,10.2151552 32.5911701,10.2757442 32.5529321,10.3248537 L32.5706269,10.3189199 Z M34.9889288,7.09091965 L34.5111667,7.72583882 C34.323057,7.97351157 34.0306237,8.11841341 33.7207949,8.11747577 L31.8746279,8.11747577 L32.989406,6.62808138 L34.7588952,6.62808138 C34.9185147,6.62808138 35.0479118,6.75825789 35.0479118,6.91883876 C35.0462704,6.98092932 35.0256776,7.04100801 34.9889288,7.09091965 Z" id="Shape"></path>
                    </g>
                </g>
            </g>
        </g>
    </g>
</svg>