<?xml version="1.0" encoding="UTF-8"?>
<svg width="61px" height="20px" viewBox="0 0 61 20" version="1.1" xmlns="http://www.w3.org/2000/svg" xmlns:xlink="http://www.w3.org/1999/xlink">
    <title>Google_2015_logo</title>
    <g id="v2" stroke="none" stroke-width="1" fill="none" fill-rule="evenodd">
        <g id="JT-MPR-SEO-Homepage-V2" transform="translate(-876.000000, -699.000000)" fill="#002D6B" fill-rule="nonzero">
            <g id="Group-41" transform="translate(247.000000, 694.000000)">
                <g id="Group-28" transform="translate(336.000000, 0.000000)">
                    <g id="Google_2015_logo" transform="translate(293.000000, 5.000000)">
                        <path d="M26.1043985,10.5250113 C26.1043985,13.4024335 23.8443851,15.522758 21.0708352,15.522758 C18.2972853,15.522758 16.0372719,13.4024335 16.0372719,10.5250113 C16.0372719,7.6273096 18.2972853,5.52726453 21.0708352,5.52726453 C23.8443851,5.52726453 26.1043985,7.6273096 26.1043985,10.5250113 Z M23.900942,10.5250113 C23.900942,8.72690401 22.5910844,7.4966201 21.0708352,7.4966201 C19.550586,7.4966201 18.2407284,8.72690401 18.2407284,10.5250113 C18.2407284,12.3050924 19.550586,13.5534024 21.0708352,13.5534024 C22.5910844,13.5534024 23.900942,12.3028391 23.900942,10.5250113 Z" id="Shape"></path>
                        <path d="M36.9633215,10.5250113 C36.9633215,13.4024335 34.7033081,15.522758 31.9297582,15.522758 C29.1562083,15.522758 26.8961949,13.4024335 26.8961949,10.5250113 C26.8961949,7.62956287 29.1562083,5.52726453 31.9297582,5.52726453 C34.7033081,5.52726453 36.9633215,7.6273096 36.9633215,10.5250113 Z M34.759865,10.5250113 C34.759865,8.72690401 33.4500074,7.4966201 31.9297582,7.4966201 C30.409509,7.4966201 29.0996514,8.72690401 29.0996514,10.5250113 C29.0996514,12.3050924 30.409509,13.5534024 31.9297582,13.5534024 C33.4500074,13.5534024 34.759865,12.3028391 34.759865,10.5250113 Z" id="Shape"></path>
                        <path d="M47.3697893,5.82920234 L47.3697893,14.8017125 C47.3697893,18.4925642 45.1844311,20 42.6009123,20 C40.168966,20 38.7052737,18.3799009 38.1532784,17.0549797 L40.0716882,16.2595764 C40.4132918,17.0730059 41.2503338,18.0328977 42.5986501,18.0328977 C44.2523735,18.0328977 45.2771844,17.0166742 45.2771844,15.1036503 L45.2771844,14.384858 L45.200267,14.384858 C44.7070909,14.9909869 43.7569352,15.5205047 42.5579291,15.5205047 C40.0490654,15.5205047 37.7505934,13.3438486 37.7505934,10.5430374 C37.7505934,7.72194682 40.0490654,5.52726453 42.5579291,5.52726453 C43.7546729,5.52726453 44.7048287,6.05678233 45.200267,6.64488508 L45.2771844,6.64488508 L45.2771844,5.83145561 L47.3697893,5.83145561 L47.3697893,5.82920234 Z M45.4332814,10.5430374 C45.4332814,8.78323569 44.2546358,7.4966201 42.7547471,7.4966201 C41.2344978,7.4966201 39.9608367,8.78323569 39.9608367,10.5430374 C39.9608367,12.284813 41.2344978,13.5534024 42.7547471,13.5534024 C44.2546358,13.5534024 45.4332814,12.284813 45.4332814,10.5430374 Z" id="Shape"></path>
                        <polygon id="Path" points="50.8197597 0.570076611 50.8197597 15.2163137 48.6705978 15.2163137 48.6705978 0.570076611"></polygon>
                        <path d="M59.194704,12.1698963 L60.9049844,13.305543 C60.3529892,14.1189725 59.0227711,15.5205047 56.7242991,15.5205047 C53.8738318,15.5205047 51.7450304,13.3258224 51.7450304,10.522758 C51.7450304,7.55069851 53.89193,5.52501127 56.477711,5.52501127 C59.0815903,5.52501127 60.3552514,7.58900406 60.7715102,8.70437134 L61,9.27219468 L54.2923528,12.0392068 C54.8058893,13.0419108 55.6044726,13.5534024 56.7242991,13.5534024 C57.8463878,13.5534024 58.6246106,13.0036052 59.194704,12.1698963 Z M53.9303887,10.3717891 L58.414219,8.51735016 C58.1676309,7.89319513 57.4256045,7.45831456 56.5523661,7.45831456 C55.4325397,7.45831456 53.8738318,8.44299234 53.9303887,10.3717891 L53.9303887,10.3717891 Z" id="Shape"></path>
                        <path d="M7.90212876,9.22487607 L7.90212876,7.1045516 L15.0758048,7.1045516 C15.1459353,7.47408743 15.1821317,7.91122127 15.1821317,8.38440739 C15.1821317,9.97521406 14.7455125,11.9423164 13.3383771,13.3438486 C11.9697003,14.7634069 10.2209613,15.5205047 7.90439104,15.5205047 C3.6105919,15.5205047 0,12.0369536 0,7.76025237 C0,3.48355115 3.6105919,0 7.90439104,0 C10.2797804,0 11.9719626,0.928346102 13.2433615,2.13835061 L11.7412105,3.63452005 C10.8295134,2.78278504 9.59431093,2.12032447 7.90212876,2.12032447 C4.76661475,2.12032447 2.31430797,4.63722397 2.31430797,7.76025237 C2.31430797,10.8832808 4.76661475,13.4001803 7.90212876,13.4001803 C9.93591455,13.4001803 11.0941997,12.5867508 11.8362261,11.8476791 C12.4379914,11.24831 12.8338896,10.3920685 12.9899866,9.2226228 L7.90212876,9.22487607 Z" id="Path"></path>
                    </g>
                </g>
            </g>
        </g>
    </g>
</svg>