<?xml version="1.0" encoding="UTF-8"?>
<svg width="98px" height="16px" viewBox="0 0 98 16" version="1.1" xmlns="http://www.w3.org/2000/svg" xmlns:xlink="http://www.w3.org/1999/xlink">
    <title>Medtronic_logo</title>
    <g id="v2" stroke="none" stroke-width="1" fill="none" fill-rule="evenodd">
        <g id="JT-MPR-SEO-Homepage-V2" transform="translate(-731.000000, -699.000000)" fill="#002D6B" fill-rule="nonzero">
            <g id="Group-41" transform="translate(247.000000, 694.000000)">
                <g id="Group-28" transform="translate(336.000000, 0.000000)">
                    <g id="Medtronic_logo" transform="translate(148.000000, 5.000000)">
                        <path d="M25.7637683,9.25903588 C25.6265797,7.55687957 24.7366208,6.55812387 22.933681,6.55812387 C21.2678414,6.55812387 20.2417243,7.60231881 20.0589339,9.25903588 L25.7637683,9.25903588 Z M28.4567553,9.89424836 C28.4567553,10.4395778 28.411124,11.0066314 28.3195668,11.4600577 L20.1045064,11.4600577 C20.4005215,12.8223859 21.5647398,13.6621042 23.7550752,13.6621042 C23.766851,13.6621042 23.7756829,13.6610795 23.7845148,13.6610795 C23.7933467,13.6610795 23.7992346,13.6600547 23.8080664,13.6600547 C23.9461382,13.6600547 24.0812659,13.6541992 24.2151866,13.6483436 C24.2867248,13.6454158 24.3594406,13.6395602 24.4312733,13.6337047 C24.4883861,13.6278491 24.5446157,13.6219935 24.6005509,13.6190657 C25.512413,13.5271333 26.3795857,13.2833951 27.175132,12.9125909 C27.2375439,12.8827275 27.3017222,12.8537424 27.3620734,12.8227079 L27.3631038,12.8227079 C27.5241384,12.7421938 27.6809042,12.6531891 27.8356682,12.5624277 L27.9051456,12.5624277 L27.9051456,14.8595102 C26.7025087,15.5835517 25.2931763,15.9997951 23.7851919,15.9997951 L23.7851919,15.9939395 C23.7301398,15.9949935 23.6762654,15.9997951 23.6200357,15.9997951 C19.48863,15.9997951 17.2297592,13.6624263 17.2297592,10.2581429 C17.2297592,6.60388517 19.5571948,4.19835751 22.9345936,4.19835751 C26.3119924,4.19835751 28.457668,6.58116555 28.457668,9.89457042 M0,15.7725696 L2.80724214,15.7725696 L3.33170855,5.99139231 L3.44593418,3.33591954 L3.49156556,3.33591954 L4.08562717,5.99139231 L6.36734308,15.7725696 L9.88184208,15.7725696 L12.1864031,5.99139231 L12.7565892,3.33591954 L12.8022206,3.33591954 L12.9164462,5.99139231 L13.4647881,15.7725696 L16.3852255,15.7725696 L15.4266428,0.113393158 L10.7718011,0.113393158 L8.67181579,9.50930304 L8.21588477,11.8921111 L8.17025339,11.8921111 L7.69044685,9.50930304 L5.59149196,0.113393158 L0.935619809,0.113393158 L0,15.7725696 Z M48.3119083,15.9997658 C45.6874566,15.9997658 44.2033477,14.7964749 44.2033477,12.073868 L44.2033477,6.717454 L41.0544002,6.717454 L41.0544002,12.4136669 C41.0544002,13.2533853 41.3742908,13.5942381 42.0587026,13.5942381 C42.2185596,13.5942381 42.4003785,13.5942381 42.6060141,13.5488574 L42.6746083,13.5488574 L42.6746083,15.7725988 C42.4005257,15.8408163 41.8530964,15.9090337 41.4428556,15.9090337 C39.8912417,15.9090337 38.9316286,15.3192897 38.5213879,14.0251204 C37.6998759,15.2965701 36.3995878,16 34.7794385,16 C31.8808159,16 29.5305352,13.7534804 29.5305352,10.0765031 C29.5305352,6.44496494 31.8808159,4.1985039 34.7794385,4.1985039 C36.215767,4.1985039 37.4038902,4.74280863 38.2243423,5.74159359 L38.2243423,0.113539547 L41.0544296,0.113539547 L41.0544296,4.42572938 L44.2033771,4.42572938 L44.2033771,1.72481738 L47.0334644,1.72481738 L47.0334644,4.42572938 L50.0692167,4.42572938 L50.0692167,6.71762966 L47.0334644,6.71762966 L47.0334644,11.9376967 C47.0334644,13.0717747 47.6036211,13.6171334 48.7003343,13.6171334 C49.2019851,13.6171334 49.543661,13.5717527 50.0006224,13.4581546 L50.0692167,13.4581546 L50.0692167,15.7728038 C49.5208453,15.9092386 48.8592787,16 48.3119672,16 M35.3724992,13.617192 C37.2896646,13.617192 38.361472,12.1422611 38.361472,10.0765616 C38.361472,8.03355243 37.2896646,6.55865088 35.3724992,6.55865088 C33.4324593,6.55865088 32.4281569,8.03355243 32.4281569,10.0765616 C32.4281569,12.1422611 33.4324593,13.617192 35.3724992,13.617192 M54.1538724,9.82658723 C54.1538724,7.98811319 55.1124551,6.9666086 56.9382694,6.9666086 C57.2571002,6.9666086 57.599836,7.01198928 57.9186668,7.10392177 L57.9642982,7.10392177 L57.9642982,4.4701439 C57.6683125,4.35742413 57.2798864,4.28949949 56.8457702,4.28949949 C55.4769467,4.28949949 54.5640543,5.12921784 54.0395584,6.49052129 L54.0395584,4.4258465 L51.3237262,4.4258465 L51.3237262,15.7728331 L54.1538135,15.7728331 L54.1538724,9.82658723 Z M64.0129576,16 C60.4299232,16 58.0100473,13.4126861 58.0100473,10.0992812 C58.0100473,6.78587636 60.4299232,4.19856246 64.0129576,4.19856246 C67.5721165,4.19856246 69.991963,6.78587636 69.991963,10.0992812 C69.991963,13.4126861 67.5721165,16 64.0129576,16 M64.0129576,13.5717527 C66.0433477,13.5717527 67.0933403,12.0968219 67.0933403,10.0992812 C67.0933403,8.10174057 66.0433477,6.62680974 64.0129576,6.62680974 C62.0272274,6.62680974 60.9086994,8.10174057 60.9086994,10.0992812 C60.9086994,12.0968219 62.0272274,13.5717527 64.0129576,13.5717527 M74.3342151,9.44134912 C74.3342151,7.69375357 75.2242624,6.55865088 76.8672569,6.55865088 C78.4874062,6.55865088 79.2414131,7.62559471 79.2414131,9.44134912 L79.2414131,15.7727745 L82.07047,15.7727745 L82.07047,9.32772174 C82.07047,6.60409012 80.6559268,4.19856246 77.5755441,4.19856246 C75.9325497,4.19856246 74.8368668,5.01556118 74.21996,6.24154236 L74.21996,4.42578794 L71.5041279,4.42578794 L71.5041279,15.7727745 L74.3342151,15.7727745 L74.3342151,9.44134912 Z M87.0680181,1.6566878 C87.0680181,2.564565 86.3379161,3.33612449 85.3803638,3.33612449 C84.4674713,3.33612449 83.7134644,2.564565 83.7134644,1.6566878 C83.7134644,0.748810587 84.4674713,0 85.3803638,0 C86.3379161,0 87.0680181,0.748810587 87.0680181,1.6566878 M88.6435664,15.7727745 C88.2094207,15.8635359 87.70777,15.9317533 87.2508085,15.9317533 C85.0833477,15.9317533 83.9191,14.7966506 83.9191,12.7092562 L83.9191,4.42572938 L86.7720324,4.42572938 L86.7720324,12.5047503 C86.7720324,13.2535609 87.1365829,13.6171334 87.9134055,13.6171334 C88.0950478,13.6171334 88.3236463,13.5937111 88.5749721,13.548916 L88.6435664,13.548916 L88.6435664,15.7727745 Z M88.9167364,10.0992812 C88.9167364,6.78587636 91.3355525,4.19856246 94.941432,4.19856246 C95.9685795,4.19856246 97.1327978,4.44859539 98,4.92465342 L98,7.42108884 L97.9314057,7.42108884 C97.0413584,6.89947446 96.1513111,6.64952936 95.1470087,6.64952936 C92.9784881,6.64952936 91.8153002,8.12446019 91.8153002,10.0992812 C91.8153002,12.0741023 92.9784881,13.5490331 95.1470087,13.5490331 C96.1513111,13.5490331 97.0413584,13.2990002 97.9314057,12.7774736 L98,12.7774736 L98,15.2738798 C97.1327978,15.7510796 95.9685795,16 94.941432,16 C91.3355525,16 88.9167364,13.4126861 88.9167364,10.0992812" id="path11008"></path>
                    </g>
                </g>
            </g>
        </g>
    </g>
</svg>