<?xml version="1.0" encoding="UTF-8"?>
<svg width="81px" height="18px" viewBox="0 0 81 18" version="1.1" xmlns="http://www.w3.org/2000/svg" xmlns:xlink="http://www.w3.org/1999/xlink">
    <title>Verizon_2015_logo_-vector</title>
    <g id="v2" stroke="none" stroke-width="1" fill="none" fill-rule="evenodd">
        <g id="JT-MPR-SEO-Homepage-V2" transform="translate(-1100.000000, -697.000000)" fill="#002D6B" fill-rule="nonzero">
            <g id="Group-41" transform="translate(247.000000, 694.000000)">
                <g id="Group-28" transform="translate(336.000000, 0.000000)">
                    <g id="Verizon_2015_logo_-vector" transform="translate(517.000000, 3.000000)">
                        <polygon id="Path" points="79.2128728 0 74.7881923 9.48798902 73.1243153 5.89293068 71.3248631 5.89293068 74.0610164 11.7735072 75.5153682 11.7735072 81 0"></polygon>
                        <path d="M60.2323494,17.6170213 L63.7942788,17.6170213 L63.7942788,11.0816747 C63.7942788,9.58682224 64.6570298,8.53671929 65.9388314,8.53671929 C67.1713329,8.53671929 67.8122337,9.40150995 67.8122337,10.6492793 L67.8122337,17.6170213 L71.3741631,17.6170213 L71.3741631,9.96980096 C71.3741631,7.37542896 69.8212112,5.54701441 67.3069081,5.54701441 C65.7046561,5.54701441 64.5830797,6.23884695 63.7449787,7.49897049 L63.6710286,7.49897049 L63.6710286,5.89293068 L60.2200243,5.89293068 L60.2323494,17.6170213 L60.2323494,17.6170213 Z M53.2317407,5.57172272 C49.5095861,5.57172272 47.019933,8.25257378 47.019933,11.7858614 C47.019933,15.2944406 49.5095861,18 53.2317407,18 C56.9538953,18 59.4435937,15.2944406 59.4435937,11.7858614 C59.4558734,8.25257378 56.9538953,5.57172272 53.2317407,5.57172272 Z M53.2070907,15.3562114 C51.5185636,15.3562114 50.6188375,13.9354839 50.6188375,11.7858614 C50.6188375,9.61153054 51.5062386,8.21551132 53.2070907,8.21551132 C54.8956178,8.21551132 55.8323189,9.61153054 55.8323189,11.7858614 C55.8446439,13.9354839 54.9079428,15.3562114 53.2070907,15.3562114 Z M36.8641205,17.6170213 L46.8720329,17.6170213 L46.8720329,14.8002745 L41.2025259,14.8002745 L41.2025259,14.7261496 L46.6255326,8.63555251 L46.6255326,5.88057653 L36.8641205,5.88057653 L36.8641205,8.70967742 L42.3487523,8.70967742 L42.3487523,8.78380233 L36.8641205,14.9238161 L36.8641205,17.6170213 L36.8641205,17.6170213 Z M32.2915399,17.6170213 L35.8781193,17.6170213 L35.8781193,5.89293068 L32.2915399,5.89293068 L32.2915399,17.6170213 Z M23.9721546,17.6170213 L27.546409,17.6170213 L27.546409,12.2306108 C27.546409,9.78448868 29.0130858,8.69732327 31.2439136,9.00617708 L31.3178637,9.00617708 L31.3178637,5.91763898 C31.1329884,5.84351407 30.9234632,5.83115992 30.5906878,5.83115992 C29.197961,5.83115992 28.2612599,6.47357584 27.4601339,7.84488675 L27.3861838,7.84488675 L27.3861838,5.89293068 L23.9721546,5.89293068 L23.9721546,17.6170213 Z M17.4152465,15.3685655 C15.8376446,15.3685655 14.8762934,14.3431709 14.6914181,12.7618394 L23.1217285,12.7618394 C23.1463786,10.2415923 22.4808278,8.22786548 21.088101,6.96774194 C20.1020998,6.05353466 18.8079732,5.54701441 17.1564212,5.54701441 C13.6314668,5.54701441 11.1911138,8.22786548 11.1911138,11.7364447 C11.1911138,15.2697323 13.5205417,17.9629375 17.3905965,17.9629375 C18.8572733,17.9629375 20.0158247,17.5676047 20.9771759,16.9128346 C22.0001522,16.2086479 22.7396531,15.1708991 22.9368533,14.1455045 L19.5104991,14.1455045 C19.1777237,14.9114619 18.4628728,15.3685655 17.4152465,15.3685655 Z M17.2303713,8.10432395 C18.4875228,8.10432395 19.3502739,9.04323953 19.4981741,10.4145504 L14.7160682,10.4145504 C14.9995435,9.03088538 15.7513694,8.10432395 17.2303713,8.10432395 Z M4.06725502,17.6170213 L7.81405965,17.6170213 L11.8813147,5.89293068 L8.29473524,5.89293068 L6.01460743,13.4289636 L5.96530736,13.4289636 L3.68517955,5.89293068 L0,5.89293068 L4.06725502,17.6170213 Z M32.2915399,1.71722718 L35.8781193,1.71722718 L35.8781193,4.90459849 L32.2915399,4.90459849 L32.2915399,1.71722718 Z" id="Shape"></path>
                    </g>
                </g>
            </g>
        </g>
    </g>
</svg>