<svg xmlns="http://www.w3.org/2000/svg" width="112" height="45" fill="none"><path fill="#71717A" d="M6.547 44.185c-1.19 0-2.276-.226-3.26-.677a5.654 5.654 0 0 1-2.339-2.051c-.588-.916-.882-2.044-.882-3.384 0-.861.15-1.668.452-2.42a5.82 5.82 0 0 1 1.312-2.01 6.166 6.166 0 0 1 2.133-1.373c.834-.329 1.784-.493 2.85-.493.561 0 1.156.055 1.785.164a7.9 7.9 0 0 1 1.681.472l.144 2.81-.923.082-.615-1.949c-.26-.177-.602-.307-1.026-.39a5.582 5.582 0 0 0-1.23-.143c-1.025 0-1.866.226-2.523.677a3.962 3.962 0 0 0-1.435 1.764c-.3.738-.451 1.551-.451 2.44 0 1.162.198 2.147.594 2.953.41.807.957 1.415 1.641 1.825a4.45 4.45 0 0 0 2.297.616c.437 0 .834-.048 1.19-.144a4.19 4.19 0 0 0 1.025-.43l.902-1.928.944.102-.575 2.584a8.278 8.278 0 0 1-1.66.636 7.584 7.584 0 0 1-2.031.267ZM12.063 44l-.061-.738 1.271-.308a3.62 3.62 0 0 0 .042-.369c.013-.178.02-.417.02-.718.014-.3.02-.67.02-1.107l.021-1.6c0-.451-.02-.895-.061-1.333a11.74 11.74 0 0 0-.103-1.046l-1.313-.287v-.677l2.749-.758.287.287-.083 1.722.062.02c.41-.792.827-1.325 1.251-1.599.424-.287.82-.43 1.19-.43.314 0 .574.082.779.246.218.15.328.383.328.697 0 .328-.116.581-.349.759-.218.164-.499.246-.84.246a1.67 1.67 0 0 1-.718-.164 2.72 2.72 0 0 1-.636-.451l.37.123c-.26.164-.507.396-.74.697-.232.287-.444.65-.635 1.087l.02 1.907.042 1.066c.013.37.027.705.04 1.005.014.288.028.513.042.677l1.784.267L16.8 44h-4.737Zm7.342 0-.04-.759 1.373-.287c.014-.055.02-.15.02-.287.015-.137.028-.355.042-.656.014-.301.02-.718.02-1.251v-1.354c0-.56-.013-1.073-.04-1.538a11.852 11.852 0 0 0-.103-1.087l-1.374-.287v-.677l2.912-.758.308.287c-.042.424-.076.84-.103 1.25-.014.41-.02.89-.02 1.436v2.584c0 .63.006 1.149.02 1.559.027.41.055.67.082.78l1.374.286-.041.759h-4.43Zm2.215-11.259c-.342 0-.643-.116-.902-.348a1.138 1.138 0 0 1-.37-.862c0-.341.124-.629.37-.861.26-.233.56-.349.902-.349a1.195 1.195 0 0 1 1.23 1.21c0 .342-.116.63-.348.862a1.195 1.195 0 0 1-.882.348ZM25.004 44l-.041-.738 1.271-.308c.014-.096.02-.219.02-.369.015-.15.028-.37.042-.656.014-.287.02-.677.02-1.17l.02-1.599a6.368 6.368 0 0 0-.02-.882 14.296 14.296 0 0 0-.143-1.497l-1.313-.287v-.677l2.748-.758.349.328-.102 1.107.061.02c.424-.533.861-.915 1.313-1.148a3.134 3.134 0 0 1 1.415-.348c.478 0 .943.13 1.394.39.451.259.82.655 1.108 1.189.3.533.45 1.216.45 2.05l.021 2.174c0 .492.007.937.02 1.333.028.383.062.65.103.8l1.23.308-.06.738h-4l-.061-.738 1.128-.308a7.662 7.662 0 0 0 .061-1.025c.014-.26.02-.581.02-.964l-.02-2.256c0-.588-.096-1.06-.287-1.415-.178-.355-.417-.615-.718-.78a1.983 1.983 0 0 0-.964-.245c-.424 0-.82.102-1.19.307-.368.205-.696.526-.984.964v3.076c0 .63.007 1.142.021 1.538.027.383.055.65.082.8l1.21.308-.061.738h-4.143Zm11.566 0-.061-.738 1.169-.308c.013-.11.02-.246.02-.41a18.938 18.938 0 0 0 .062-1.58V38.73c0-.602-.103-1.08-.308-1.436-.205-.355-.465-.615-.78-.78a1.907 1.907 0 0 0-.922-.245 2.51 2.51 0 0 0-1.292.348c-.396.233-.752.588-1.066 1.067l-.39-.76c.478-.655.984-1.134 1.517-1.435a3.405 3.405 0 0 1 1.723-.471c.574 0 1.094.136 1.559.41.465.273.834.67 1.107 1.19.274.519.41 1.148.41 1.886v2.317c0 .492.007.937.02 1.333.028.383.056.65.083.8l1.271.308-.04.738H36.57Zm8.675.164A7.162 7.162 0 0 1 43.728 44a5.445 5.445 0 0 1-1.293-.472l-.102-2.194h1.005l.41 1.476a2.831 2.831 0 0 0 1.64.493c.465 0 .842-.11 1.129-.328.287-.233.43-.54.43-.923 0-.356-.13-.663-.39-.923-.26-.273-.765-.567-1.517-.882-.97-.424-1.654-.827-2.05-1.21-.397-.396-.596-.902-.596-1.517 0-.493.144-.923.431-1.293.301-.382.711-.676 1.23-.881.52-.219 1.122-.328 1.805-.328.383 0 .773.034 1.17.102.396.069.724.157.984.267l.225 2.133h-.964l-.492-1.395a1.606 1.606 0 0 0-.492-.185 2.23 2.23 0 0 0-.615-.082c-.479 0-.861.117-1.149.349-.287.219-.43.506-.43.861 0 .41.157.745.471 1.005.315.246.869.554 1.662.923.902.41 1.53.814 1.886 1.21.356.396.533.875.533 1.436 0 .738-.32 1.346-.964 1.825-.642.465-1.456.697-2.44.697Zm9.495 0c-.888 0-1.668-.191-2.338-.574a4.029 4.029 0 0 1-1.538-1.6c-.369-.697-.553-1.49-.553-2.379 0-.93.205-1.736.615-2.42a4.383 4.383 0 0 1 1.64-1.6 4.539 4.539 0 0 1 2.256-.573c.848 0 1.586.191 2.215.574a3.663 3.663 0 0 1 1.477 1.579c.355.67.533 1.456.533 2.358 0 .862-.191 1.64-.574 2.338a4.608 4.608 0 0 1-1.559 1.682c-.642.41-1.367.615-2.174.615Zm.205-.964a1.88 1.88 0 0 0 1.21-.41c.342-.287.609-.677.8-1.169.192-.506.287-1.08.287-1.723 0-1.175-.246-2.126-.738-2.85-.479-.738-1.114-1.108-1.907-1.108-.739 0-1.333.308-1.785.923-.437.615-.656 1.429-.656 2.44 0 .766.117 1.443.349 2.031.246.588.58 1.046 1.005 1.374.424.328.902.492 1.435.492Zm5.578.8-.04-.738 1.27-.308c.015-.096.021-.226.021-.39.014-.164.028-.39.041-.676.014-.287.02-.663.02-1.128l.021-1.58c0-.45-.02-.895-.061-1.332a11.773 11.773 0 0 0-.103-1.067l-1.312-.287v-.677l2.748-.758.349.328-.103 1.087.061.02c.48-.52.95-.895 1.416-1.128.464-.232.97-.348 1.517-.348.506 0 .978.13 1.415.39.451.245.814.628 1.087 1.148.287.52.43 1.182.43 1.989v2.276c0 .492.008.937.021 1.333.028.397.062.663.103.8l1.271.308-.061.738h-4.122l-.041-.738 1.19-.308a7.662 7.662 0 0 0 .061-1.025c.013-.26.02-.581.02-.964V38.75c0-.615-.11-1.1-.328-1.456-.205-.37-.465-.629-.78-.78a2.062 2.062 0 0 0-.963-.245 2.48 2.48 0 0 0-1.272.348c-.382.219-.71.527-.984.923v3.076c0 .63.007 1.142.02 1.538.028.383.055.65.083.8l1.271.308-.061.738h-4.205Z"/><path fill="#27272A" d="M10.322 21.273c-1.957 0-3.683-.344-5.176-1.03-1.494-.706-2.665-1.715-3.512-3.027C.806 15.884.393 14.279.393 12.402c0-1.453.252-2.765.756-3.935A8.295 8.295 0 0 1 3.36 5.5a9.968 9.968 0 0 1 3.36-1.877c1.292-.444 2.715-.666 4.27-.666.907 0 1.826.1 2.754.303.949.181 1.736.424 2.362.726l.211 4.632-1.846.121-1.06-3.178a4.993 4.993 0 0 0-1.271-.455 6.678 6.678 0 0 0-1.423-.15c-1.17 0-2.16.272-2.967.816-.807.545-1.423 1.322-1.847 2.332-.423 1.009-.635 2.2-.635 3.572 0 1.554.252 2.896.756 4.026.525 1.13 1.221 1.998 2.09 2.604a5.082 5.082 0 0 0 2.906.878c.544 0 1.08-.071 1.604-.212a4.1 4.1 0 0 0 1.393-.697l1.09-2.785 2.028.212-.878 4.027c-.626.403-1.483.766-2.573 1.09-1.07.302-2.19.454-3.36.454ZM18.436 21l-.091-1.393 1.877-.514c.02-.081.04-.263.06-.545.02-.303.04-.666.06-1.09.021-.444.031-.908.031-1.393l.03-2.27c0-.605-.02-1.14-.06-1.605-.04-.484-.111-.989-.212-1.513l-1.938-.424V8.89l5.238-1.363.787.515-.121 2.392.09.03c.586-1.13 1.171-1.897 1.756-2.3.606-.405 1.221-.606 1.847-.606.545 0 1.02.151 1.423.454.424.302.636.777.636 1.423 0 .645-.222 1.15-.666 1.513a2.366 2.366 0 0 1-1.544.545c-.485 0-.919-.08-1.302-.242-.384-.182-.807-.495-1.272-.939l.848.091a4.918 4.918 0 0 0-.878.848 5.284 5.284 0 0 0-.726 1.18l.03 2.392c.02.747.03 1.423.03 2.028.02.586.04 1.08.06 1.484.02.383.041.636.061.757l2.634.454-.09 1.453h-8.598Zm12.26 0-.09-1.423 2.028-.484c.02-.081.04-.263.06-.545.02-.303.04-.666.06-1.09.021-.424.031-.888.031-1.393l.03-2.27c0-.605-.02-1.15-.06-1.635-.04-.484-.111-.979-.212-1.483l-2.028-.424V8.89l5.57-1.363.817.515c-.06.646-.11 1.302-.151 1.968a72.2 72.2 0 0 0-.03 2.21v3.814c0 .666.01 1.302.03 1.907.04.606.08.99.121 1.15l2.028.485L38.81 21h-8.114Zm4.087-15.954c-.807 0-1.443-.242-1.907-.727-.464-.504-.696-1.08-.696-1.725 0-.646.232-1.211.696-1.696.464-.504 1.1-.756 1.907-.756.807 0 1.433.252 1.877.756a2.43 2.43 0 0 1 .666 1.696c0 .646-.222 1.22-.666 1.725-.444.485-1.07.727-1.877.727ZM39.839 21l-.091-1.393 1.877-.514c.02-.081.04-.263.06-.545.02-.303.04-.666.061-1.09.02-.424.03-.888.03-1.393l.03-2.27c0-.404-.01-.767-.03-1.09a18.056 18.056 0 0 0-.242-2.028l-1.937-.424V8.89l5.328-1.363.817.515-.181 1.756.09.03c.646-.827 1.322-1.423 2.029-1.786a4.57 4.57 0 0 1 2.21-.575c.787 0 1.513.202 2.18.605.685.384 1.24.98 1.664 1.786.424.787.636 1.807.636 3.058l.06 3.118c0 .666.01 1.302.03 1.907.021.606.062.99.122 1.15l1.635.515L56.126 21h-7.175l-.09-1.393 1.543-.514c.04-.182.07-.434.091-.757.02-.343.03-.716.03-1.12.02-.404.03-.787.03-1.15l-.03-2.846c0-.727-.11-1.302-.333-1.726-.201-.444-.484-.757-.847-.938-.343-.182-.747-.273-1.211-.273-.444 0-.888.121-1.332.364a3.138 3.138 0 0 0-1.12.938v4.45c0 .666.01 1.302.03 1.907.04.606.08.99.121 1.15l1.665.515-.09 1.393h-7.57Zm17.77 0-.09-1.393 1.574-.514c.04-.182.07-.434.09-.757.02-.343.03-.716.03-1.12.021-.404.031-.787.031-1.15l-.06-2.574c0-.787-.111-1.413-.333-1.877-.222-.464-.525-.797-.909-.999a2.492 2.492 0 0 0-1.271-.333c-.505 0-.989.111-1.453.333a2.776 2.776 0 0 0-1.12.939l-.878-1.15c.726-.97 1.493-1.696 2.3-2.18a5.029 5.029 0 0 1 2.665-.757c.948 0 1.786.222 2.512.666.747.424 1.322 1.04 1.726 1.846.404.808.605 1.777.605 2.907l.06 3.148c0 .666.011 1.302.031 1.907.04.606.08.99.121 1.15l1.877.515-.09 1.393h-7.418Zm13.775.242c-.848 0-1.685-.09-2.513-.272-.827-.202-1.524-.454-2.089-.757l-.151-3.542h1.937l.636 2.18c.767.444 1.564.666 2.392.666.625 0 1.1-.122 1.423-.364.322-.262.484-.605.484-1.029 0-.444-.182-.827-.545-1.15-.343-.323-1.06-.687-2.15-1.09-1.493-.545-2.532-1.14-3.118-1.786-.585-.646-.877-1.454-.877-2.422 0-.828.252-1.554.756-2.18.505-.646 1.211-1.14 2.12-1.483.908-.364 1.957-.545 3.148-.545.646 0 1.302.06 1.968.181.666.122 1.21.283 1.634.485l.364 3.511h-1.938L74.2 9.497a2.372 2.372 0 0 0-.757-.272 2.972 2.972 0 0 0-.817-.121c-.606 0-1.1.13-1.483.393a1.241 1.241 0 0 0-.545 1.06c0 .484.222.888.666 1.21.444.323 1.251.727 2.422 1.211 1.332.546 2.28 1.13 2.845 1.756.565.606.848 1.363.848 2.27 0 1.272-.555 2.302-1.665 3.089-1.11.767-2.553 1.15-4.33 1.15Zm14.894 0c-1.412 0-2.654-.282-3.723-.848a6.514 6.514 0 0 1-2.513-2.391c-.606-1.03-.908-2.2-.908-3.512 0-1.493.343-2.765 1.03-3.814a6.691 6.691 0 0 1 2.693-2.392 7.932 7.932 0 0 1 3.542-.817c1.332 0 2.503.282 3.512.847a5.932 5.932 0 0 1 2.392 2.392c.585 1.01.878 2.17.878 3.481 0 1.332-.313 2.533-.939 3.603a6.891 6.891 0 0 1-2.482 2.513c-1.05.625-2.21.938-3.482.938Zm.303-1.937c.505 0 .928-.162 1.272-.485.363-.323.635-.797.817-1.422.202-.626.303-1.373.303-2.24 0-1.736-.283-3.15-.848-4.24-.545-1.089-1.282-1.634-2.21-1.634-.767 0-1.372.394-1.816 1.18-.444.768-.666 1.817-.666 3.15 0 1.069.13 2.038.393 2.905.283.868.656 1.555 1.12 2.06.485.483 1.03.726 1.635.726ZM94.815 21l-.09-1.393 1.877-.514c.02-.081.04-.263.06-.545.02-.283.04-.636.06-1.06.02-.444.03-.918.03-1.423l.031-2.3c0-.626-.02-1.17-.06-1.635-.04-.464-.111-.949-.212-1.453l-1.938-.424V8.89l5.328-1.363.818.515-.182 1.786.091.03c.626-.807 1.312-1.402 2.059-1.786a5.125 5.125 0 0 1 2.421-.605c.868 0 1.635.212 2.301.636.686.423 1.231 1.049 1.635 1.876.404.808.605 1.787.605 2.937v3.118c0 .686.011 1.332.031 1.938.02.585.06.958.121 1.12l1.877.514-.091 1.393h-7.599l-.091-1.393 1.726-.514c.04-.182.071-.434.091-.757.02-.343.03-.716.03-1.12.02-.404.03-.787.03-1.15v-2.543c0-.768-.121-1.383-.363-1.847-.222-.485-.525-.838-.908-1.06-.363-.222-.787-.333-1.272-.333-.504 0-.978.111-1.422.333a3.686 3.686 0 0 0-1.151.969v4.45c0 .686.01 1.332.03 1.938.041.585.081.958.122 1.12l1.846.514-.091 1.393h-7.75Z"/></svg>