<svg xmlns="http://www.w3.org/2000/svg" width="120" height="43" fill="none"><path fill="#71717A" d="M4.624 42.204a5.26 5.26 0 0 1-2.176-.442 5.865 5.865 0 0 1-1.734-1.224l.799-.918a4.317 4.317 0 0 0 3.128 1.343c.737 0 1.309-.165 1.717-.493.408-.34.612-.782.612-1.326 0-.386-.085-.692-.255-.918a1.957 1.957 0 0 0-.663-.578 10.15 10.15 0 0 0-.935-.476l-1.598-.697a6.699 6.699 0 0 1-1.071-.595 3.077 3.077 0 0 1-.85-.901c-.227-.374-.34-.833-.34-1.377 0-.567.147-1.071.442-1.513a3.05 3.05 0 0 1 1.24-1.054c.534-.261 1.14-.391 1.82-.391.68 0 1.303.124 1.87.374a4.457 4.457 0 0 1 1.428.969l-.765.918a4.426 4.426 0 0 0-1.156-.731 3.258 3.258 0 0 0-1.377-.29c-.623 0-1.128.148-1.513.443-.374.294-.561.69-.561 1.19 0 .35.09.64.272.867.181.226.414.413.697.56.295.148.59.29.884.426l1.58.68c.443.192.834.413 1.174.663.351.249.623.56.816.935.204.374.306.833.306 1.377 0 .589-.153 1.127-.46 1.615-.294.476-.73.855-1.308 1.139-.567.283-1.241.425-2.023.425Zm9.064 0c-.669 0-1.298-.17-1.887-.51-.578-.34-1.048-.833-1.411-1.48-.351-.645-.527-1.422-.527-2.328 0-.93.176-1.717.527-2.363.363-.646.833-1.14 1.41-1.48.59-.34 1.22-.51 1.888-.51.68 0 1.309.17 1.887.51.578.34 1.043.834 1.394 1.48.363.646.544 1.433.544 2.363 0 .906-.181 1.683-.544 2.329-.351.646-.816 1.139-1.394 1.479-.578.34-1.207.51-1.887.51Zm0-1.156a2.1 2.1 0 0 0 1.258-.391c.363-.272.64-.646.833-1.122.193-.476.289-1.026.289-1.65 0-.634-.096-1.19-.29-1.665-.192-.488-.47-.862-.832-1.122a2.04 2.04 0 0 0-1.258-.408 2.04 2.04 0 0 0-1.258.408c-.351.26-.63.634-.833 1.122-.193.476-.29 1.03-.29 1.666 0 .623.097 1.173.29 1.649.204.476.482.85.833 1.122a2.1 2.1 0 0 0 1.258.39Zm8.415 1.156c-.873 0-1.513-.272-1.921-.816-.397-.556-.595-1.36-.595-2.414v-5.236h1.394v5.049c0 .77.119 1.331.357 1.683.25.34.646.51 1.19.51.42 0 .793-.108 1.122-.323.34-.227.708-.578 1.105-1.054v-5.865h1.394V42h-1.156l-.12-1.292h-.05a4.977 4.977 0 0 1-1.224 1.088c-.43.272-.93.408-1.496.408ZM28.936 42v-8.262h1.156l.119 1.496h.05c.273-.522.613-.935 1.02-1.241a2.17 2.17 0 0 1 1.327-.46c.181 0 .34.012.476.035.136.022.272.068.408.136l-.306 1.19a2.185 2.185 0 0 0-.357-.068 1.953 1.953 0 0 0-.408-.034c-.352 0-.72.141-1.105.425-.374.283-.703.776-.986 1.479V42h-1.394Zm9.008.204c-.736 0-1.4-.17-1.989-.51-.589-.34-1.054-.833-1.394-1.48-.34-.645-.51-1.422-.51-2.328 0-.93.182-1.717.544-2.363.374-.646.862-1.14 1.462-1.48.612-.34 1.27-.51 1.972-.51.544 0 1.01.091 1.394.273.397.18.737.413 1.02.697l-.697.867a2.148 2.148 0 0 0-.73-.476 2.22 2.22 0 0 0-.936-.187c-.487 0-.929.136-1.326.408-.385.26-.69.629-.918 1.105-.226.476-.34 1.03-.34 1.666 0 .623.108 1.173.323 1.649.216.476.516.85.901 1.122.386.26.833.39 1.343.39.386 0 .743-.073 1.071-.22.33-.148.612-.335.85-.561l.612.85a4.476 4.476 0 0 1-1.19.799 3.62 3.62 0 0 1-1.462.289Zm7.473 0c-.737 0-1.411-.17-2.023-.51a3.816 3.816 0 0 1-1.428-1.48c-.352-.645-.527-1.427-.527-2.345 0-.896.181-1.666.544-2.312.362-.646.827-1.145 1.394-1.496a3.363 3.363 0 0 1 1.802-.527c.702 0 1.297.164 1.785.493a2.92 2.92 0 0 1 1.122 1.343c.249.578.374 1.258.374 2.04 0 .147-.006.289-.017.425 0 .136-.017.272-.051.408h-5.95v-1.105h4.76c0-.794-.176-1.4-.527-1.82-.34-.43-.833-.645-1.48-.645-.373 0-.742.107-1.104.323-.363.204-.663.538-.901 1.003-.227.464-.34 1.082-.34 1.853 0 .702.119 1.292.357 1.768.249.476.583.838 1.003 1.088a2.74 2.74 0 0 0 1.377.357c.396 0 .765-.057 1.105-.17.351-.114.668-.267.952-.46l.51.919a5.19 5.19 0 0 1-1.224.612 4.464 4.464 0 0 1-1.513.238Z"/><path fill="#27272A" d="M10.233 20.378c-1.296 0-2.52-.207-3.672-.621a9.596 9.596 0 0 1-3.024-1.836 8.499 8.499 0 0 1-2.025-2.808c-.486-1.08-.729-2.277-.729-3.591 0-1.242.234-2.43.702-3.564a9.576 9.576 0 0 1 2.052-3.024c.9-.882 1.98-1.575 3.24-2.08 1.26-.521 2.655-.782 4.185-.782.378 0 .81.027 1.296.08a24.29 24.29 0 0 1 1.54.217c.521.09 1.007.198 1.457.324a6.61 6.61 0 0 1 1.134.35.812.812 0 0 1 .378.244c.09.09.144.225.162.405.09.63.162 1.224.216 1.782a11.3 11.3 0 0 1 .108 1.404c0 .18-.045.315-.135.405-.072.09-.18.135-.324.135-.216 0-.378-.054-.486-.162a1.723 1.723 0 0 1-.243-.405 12.22 12.22 0 0 0-.567-1.053 4.61 4.61 0 0 0-.729-1.026 4.758 4.758 0 0 0-.783-.621 3.756 3.756 0 0 0-1.08-.486c-.432-.126-.954-.19-1.566-.19-.972 0-1.836.199-2.592.595a5.608 5.608 0 0 0-1.917 1.647 7.745 7.745 0 0 0-1.16 2.349 9.79 9.79 0 0 0-.379 2.754c0 1.206.117 2.313.351 3.32.234.99.576 1.846 1.026 2.566.45.72 1.008 1.278 1.674 1.674.666.378 1.44.567 2.322.567.468 0 .846-.081 1.134-.243.306-.162.55-.306.73-.432.18-.144.323-.37.431-.675.126-.324.19-.684.19-1.08.017-.162.026-.387.026-.675v-.864c.018-.288.027-.513.027-.675 0-.198-.045-.378-.135-.54-.072-.18-.225-.315-.459-.405a2.366 2.366 0 0 0-.567-.27 3.494 3.494 0 0 0-.62-.162 11.797 11.797 0 0 0-.54-.135.911.911 0 0 1-.433-.19.489.489 0 0 1-.216-.404c0-.126.063-.225.19-.297a.756.756 0 0 1 .377-.108 40.962 40.962 0 0 1 2.835.107 26.448 26.448 0 0 0 2.943-.027 28.163 28.163 0 0 1 1.701-.053c.126 0 .234.036.324.108.09.054.135.153.135.297 0 .18-.054.315-.162.405a.92.92 0 0 1-.378.162c-.504.126-.846.288-1.026.486-.18.198-.306.477-.378.837-.072.396-.126.747-.162 1.053a15.72 15.72 0 0 0-.027.972v.864c0 .09.036.18.108.27.072.09.153.18.243.27.072.09.135.18.19.27.053.09.08.189.08.297a.715.715 0 0 1-.108.35c-.072.109-.207.18-.405.217-.144.018-.396.117-.756.297-.36.162-.81.36-1.35.594-.54.216-1.179.405-1.917.567a11.48 11.48 0 0 1-2.457.243Zm12.657 0c-.486 0-.937-.117-1.35-.351a2.885 2.885 0 0 1-1-.918 2.314 2.314 0 0 1-.35-1.242c0-.612.188-1.125.566-1.54.396-.413.973-.782 1.729-1.106l2.402-1.053c.36-.162.576-.306.648-.432.09-.126.136-.36.136-.702l.027-1.54c.017-.503-.073-.9-.27-1.187-.198-.306-.495-.46-.892-.46-.234 0-.468.055-.702.163-.233.09-.413.198-.54.324a.946.946 0 0 0-.134.27c-.018.09-.027.189-.027.297 0 .108.009.243.027.405.017.144.026.27.026.378 0 .108-.143.252-.431.432a7.462 7.462 0 0 1-1 .459c-.377.126-.701.189-.971.189a.49.49 0 0 1-.351-.162.611.611 0 0 1-.136-.405c0-.288.1-.567.297-.837.198-.288.522-.612.973-.972a9.29 9.29 0 0 1 1.538-1.053 10.031 10.031 0 0 1 1.648-.73c.558-.18 1.026-.27 1.404-.27.971 0 1.745.316 2.322.946.576.612.846 1.43.81 2.457l-.136 5.454c-.017.414.055.765.216 1.053.163.288.36.432.595.432.341 0 .639-.117.89-.351.055-.054.108-.081.163-.081.09 0 .162.027.216.08a.257.257 0 0 1 .107.217c0 .216-.162.495-.485.837a3.69 3.69 0 0 1-1.08.729 2.73 2.73 0 0 1-1.188.27c-1.009 0-1.846-.513-2.511-1.54h-.055c-.594.54-1.134.928-1.62 1.162a3.14 3.14 0 0 1-1.511.378Zm1.62-1.755c.197 0 .36-.027.485-.081.127-.072.252-.18.378-.324a.946.946 0 0 0 .136-.27c.035-.126.053-.27.053-.432l.081-1.944c0-.18-.027-.297-.08-.351a.259.259 0 0 0-.19-.081.444.444 0 0 0-.135.027 1.482 1.482 0 0 0-.189.08c-.521.253-.909.514-1.16.784-.252.252-.378.666-.378 1.242 0 .522.108.882.323 1.08.216.18.442.27.675.27Zm7.87 1.457A.835.835 0 0 1 32 20a.339.339 0 0 1-.162-.297c0-.144.054-.252.162-.324a1.21 1.21 0 0 1 .46-.216c.395-.126.656-.261.782-.405.144-.144.216-.351.216-.621v-6.21c0-.378-.054-.684-.162-.918-.09-.252-.306-.423-.648-.513a1.057 1.057 0 0 1-.243-.135c-.072-.072-.108-.19-.108-.351 0-.252.108-.405.324-.46a23.478 23.478 0 0 0 1.89-.566 15.364 15.364 0 0 0 1.782-.702c.09-.072.198-.135.324-.19.144-.071.243-.107.297-.107.162 0 .243.099.243.297 0 .09-.009.279-.027.567 0 .27-.009.549-.027.837 0 .288-.009.53-.027.729 0 .162.036.243.108.243.27-.378.585-.747.945-1.107a5.69 5.69 0 0 1 1.215-.891c.432-.234.855-.351 1.27-.351.63 0 1.07.117 1.322.35.27.235.405.54.405.919 0 .27-.08.567-.243.89a2.748 2.748 0 0 1-.567.838c-.234.234-.486.35-.756.35a1.38 1.38 0 0 1-.513-.107l-.54-.27-.54-.216a.95.95 0 0 0-.459-.135 1.66 1.66 0 0 0-1.215.513c-.342.342-.513 1.026-.513 2.052v4.4c0 .36.108.63.324.81.234.163.603.316 1.107.46.198.054.342.126.432.216.108.072.162.18.162.324 0 .252-.153.378-.459.378-.54 0-1.098-.027-1.674-.081a25.309 25.309 0 0 0-1.566-.054c-.306 0-.62.009-.945.027l-.972.054a9.3 9.3 0 0 1-1.026.054Zm13.528.298c-.486 0-.936-.117-1.35-.351a2.885 2.885 0 0 1-.999-.918 2.314 2.314 0 0 1-.351-1.242c0-.612.189-1.125.567-1.54.396-.413.972-.782 1.728-1.106l2.403-1.053c.36-.162.576-.306.648-.432.09-.126.135-.36.135-.702l.027-1.54c.018-.503-.072-.9-.27-1.187-.198-.306-.495-.46-.891-.46-.234 0-.468.055-.702.163-.234.09-.414.198-.54.324a.946.946 0 0 0-.135.27c-.018.09-.027.189-.027.297 0 .108.009.243.027.405.018.144.027.27.027.378 0 .108-.144.252-.432.432a7.462 7.462 0 0 1-.999.459c-.378.126-.702.189-.972.189a.49.49 0 0 1-.351-.162.611.611 0 0 1-.135-.405c0-.288.099-.567.297-.837.198-.288.522-.612.972-.972a9.29 9.29 0 0 1 1.539-1.053 10.031 10.031 0 0 1 1.647-.73c.558-.18 1.026-.27 1.404-.27.972 0 1.746.316 2.322.946.576.612.846 1.43.81 2.457l-.135 5.454c-.018.414.054.765.216 1.053.162.288.36.432.594.432.342 0 .639-.117.891-.351.054-.054.108-.081.162-.081.09 0 .162.027.216.08a.257.257 0 0 1 .108.217c0 .216-.162.495-.486.837a3.69 3.69 0 0 1-1.08.729 2.73 2.73 0 0 1-1.188.27c-1.008 0-1.845-.513-2.511-1.54h-.054c-.594.54-1.134.928-1.62 1.162a3.14 3.14 0 0 1-1.512.378Zm1.62-1.755c.198 0 .36-.027.486-.081.126-.072.252-.18.378-.324a.946.946 0 0 0 .135-.27c.036-.126.054-.27.054-.432l.081-1.944c0-.18-.027-.297-.081-.351a.259.259 0 0 0-.189-.081.444.444 0 0 0-.135.027 1.482 1.482 0 0 0-.189.08c-.522.253-.909.514-1.161.784-.252.252-.378.666-.378 1.242 0 .522.108.882.324 1.08.216.18.441.27.675.27Zm7.842 1.457a.953.953 0 0 1-.377-.08.339.339 0 0 1-.162-.297.35.35 0 0 1 .189-.324c.126-.09.27-.162.432-.216.27-.09.504-.19.702-.297.216-.126.324-.37.324-.73v-6.182c0-.396-.054-.73-.162-1-.108-.287-.333-.458-.675-.512a.478.478 0 0 1-.216-.135c-.054-.072-.081-.19-.081-.351 0-.252.09-.405.27-.46.45-.107.918-.233 1.404-.377.504-.162.98-.324 1.43-.486.469-.18.874-.37 1.216-.567a.681.681 0 0 0 .162-.081.29.29 0 0 1 .162-.054c.162 0 .243.099.243.297 0 .144-.027.387-.081.729a8.665 8.665 0 0 0-.054.89c0 .18.018.289.054.325h.054a7.902 7.902 0 0 1 1.809-1.323c.648-.342 1.386-.513 2.214-.513.558 0 1.07.198 1.539.594.468.378.819.873 1.053 1.485h.108c.54-.648 1.143-1.152 1.809-1.512.684-.378 1.449-.567 2.295-.567.558 0 1.062.162 1.512.486.45.306.81.747 1.08 1.323s.405 1.26.405 2.052v5.94c0 .36.099.603.297.729.216.108.459.207.729.297.144.054.27.126.378.216.108.072.162.18.162.324a.36.36 0 0 1-.135.297.618.618 0 0 1-.324.08 9.3 9.3 0 0 1-1.026-.053l-.918-.054a14.75 14.75 0 0 0-1.782 0l-.81.054c-.27.036-.585.054-.945.054A.618.618 0 0 1 69.33 20a.36.36 0 0 1-.135-.297c0-.144.045-.261.135-.351a.94.94 0 0 1 .405-.19 1.51 1.51 0 0 0 .54-.27c.126-.125.189-.323.189-.593v-5.535c0-.45-.063-.837-.19-1.161a1.706 1.706 0 0 0-.54-.756 1.084 1.084 0 0 0-.755-.297c-.234 0-.495.054-.783.162-.27.09-.54.252-.81.486-.252.216-.378.594-.378 1.134v5.805c0 .36.072.603.216.729.144.108.35.207.62.297a.94.94 0 0 1 .379.189c.108.09.162.207.162.35a.339.339 0 0 1-.162.298.566.566 0 0 1-.297.08c-.36 0-.684-.017-.972-.053l-.837-.054c-.252-.018-.54-.027-.864-.027-.306 0-.594.009-.864.027-.252.018-.522.036-.81.054-.27.036-.585.054-.945.054a.566.566 0 0 1-.297-.081.36.36 0 0 1-.135-.297c0-.144.045-.252.135-.324.108-.09.234-.162.378-.216.252-.09.44-.19.567-.297.126-.108.189-.297.189-.567v-5.535c0-.45-.063-.828-.19-1.134-.125-.324-.296-.576-.512-.756a1.118 1.118 0 0 0-.783-.297c-.216 0-.468.045-.756.135-.27.09-.558.243-.864.459-.234.162-.351.513-.351 1.053v5.913c0 .324.054.558.162.702.126.126.324.234.594.324a.969.969 0 0 1 .35.216c.109.072.163.18.163.324a.332.332 0 0 1-.135.27.465.465 0 0 1-.297.108c-.36 0-.684-.018-.972-.054l-.81-.054c-.252-.018-.54-.027-.864-.027-.306 0-.612.009-.918.027-.288.018-.594.036-.918.054a8.58 8.58 0 0 1-1 .054Zm27.072.298c-1.08 0-2.052-.243-2.916-.73a5.675 5.675 0 0 1-2.079-1.997c-.504-.864-.756-1.836-.756-2.916 0-.864.162-1.683.486-2.457a6.557 6.557 0 0 1 1.35-2.052 6.387 6.387 0 0 1 2.025-1.404 6.077 6.077 0 0 1 2.484-.513c1.116 0 2.124.26 3.024.783a5.908 5.908 0 0 1 2.133 2.079c.54.846.81 1.773.81 2.78a6.98 6.98 0 0 1-.756 3.214c-.486.972-1.215 1.755-2.187 2.349-.954.576-2.16.864-3.618.864Zm.54-1.188c.378 0 .702-.072.972-.216.288-.162.522-.396.702-.702.216-.36.36-.846.432-1.458.09-.63.135-1.368.135-2.214 0-.972-.108-1.836-.324-2.592-.216-.774-.522-1.386-.918-1.836-.378-.45-.828-.675-1.35-.675-.288 0-.549.054-.783.162-.234.09-.44.225-.62.405-.307.36-.523.873-.649 1.539-.108.666-.162 1.485-.162 2.457a9.4 9.4 0 0 0 .324 2.484c.234.774.54 1.413.918 1.917.396.486.837.729 1.323.729Zm7.748.89a.953.953 0 0 1-.379-.08.339.339 0 0 1-.162-.297.35.35 0 0 1 .19-.324c.125-.09.27-.162.431-.216.27-.09.504-.19.702-.297.216-.126.324-.37.324-.73v-6.182c0-.396-.063-.73-.189-1-.108-.27-.324-.44-.648-.512a.478.478 0 0 1-.216-.135c-.054-.072-.08-.19-.08-.351 0-.252.09-.405.27-.46a25.139 25.139 0 0 0 1.997-.566 13.998 13.998 0 0 0 1.89-.783c.072-.036.153-.081.243-.135a.484.484 0 0 1 .243-.081c.108 0 .171.036.19.108a.384.384 0 0 1 .053.216c0 .144-.027.378-.08.702a7.215 7.215 0 0 0-.055.837v.243c.018.09.036.144.054.162.612-.594 1.233-1.053 1.863-1.377.63-.324 1.36-.486 2.187-.486.936 0 1.719.35 2.349 1.053.648.684.972 1.62.972 2.808v5.94c0 .36.099.603.297.729.216.108.459.207.729.297.144.054.27.126.378.216.108.072.162.18.162.324a.339.339 0 0 1-.162.297.566.566 0 0 1-.297.08 9.3 9.3 0 0 1-1.026-.053l-.918-.054a15.63 15.63 0 0 0-1.836 0l-.918.054a8.58 8.58 0 0 1-.999.054.719.719 0 0 1-.324-.081.36.36 0 0 1-.135-.297c0-.144.054-.252.162-.324.108-.09.234-.162.378-.216.27-.09.495-.19.675-.297.18-.126.27-.37.27-.73v-5.372c0-.684-.162-1.215-.486-1.593-.306-.396-.72-.603-1.242-.621-.396 0-.747.063-1.053.189a5.47 5.47 0 0 0-.945.513.72.72 0 0 0-.216.513v6.372c0 .36.1.603.297.729.198.108.423.207.675.297.36.108.54.288.54.54a.332.332 0 0 1-.135.27.503.503 0 0 1-.324.108 8.58 8.58 0 0 1-.999-.054c-.306-.018-.594-.036-.864-.054-.27-.018-.567-.027-.89-.027-.307 0-.622.009-.946.027l-.972.054a9.3 9.3 0 0 1-1.026.054Zm23.851.433c-.054 0-.135-.063-.243-.19-.09-.107-.135-.197-.135-.27.036-.27.063-.521.081-.755.036-.252.054-.477.054-.675v-.162c-.36.558-.864 1.017-1.512 1.377-.63.36-1.314.54-2.052.54-1.008 0-1.908-.252-2.7-.756a5.338 5.338 0 0 1-1.836-2.052 6.044 6.044 0 0 1-.675-2.835c0-1.224.27-2.313.81-3.267a5.777 5.777 0 0 1 2.268-2.241c.972-.558 2.097-.837 3.375-.837.27 0 .549.027.837.08.306.037.585.09.837.163.252.054.369.08.351.08.072 0 .108-.116.108-.35V5.15c0-.648-.081-1.116-.243-1.404-.162-.288-.432-.468-.81-.54-.216-.054-.324-.19-.324-.405 0-.234.099-.37.297-.405.666-.144 1.35-.324 2.052-.54.72-.234 1.305-.45 1.755-.648.234-.108.396-.171.486-.19a.752.752 0 0 1 .162-.053c.198 0 .297.108.297.324 0-.054-.009.018-.027.216-.018.18-.036.423-.054.729l-.054.918-.135 13.608c0 .612.045 1.053.135 1.323.09.27.252.405.486.405.09 0 .18-.01.27-.027.108-.018.369-.036.783-.054.252-.018.378.072.378.27a.837.837 0 0 1-.162.459c-.108.162-.207.243-.297.243-.648.072-1.332.189-2.052.35-.702.163-1.386.37-2.052.622-.108.054-.198.09-.27.108a.435.435 0 0 1-.189.054Zm-2.43-1.971c.27 0 .603-.072.999-.216.414-.144.747-.351.999-.621l-.027-5.967c0-.324-.126-.64-.378-.945a2.866 2.866 0 0 0-.918-.81c-.36-.216-.72-.324-1.08-.324-.432 0-.837.18-1.215.54-.36.342-.657.837-.891 1.485-.216.63-.324 1.404-.324 2.322 0 .738.072 1.386.216 1.944.162.558.378 1.035.648 1.43.27.379.576.667.918.865.342.198.693.297 1.053.297Z"/></svg>