<svg xmlns="http://www.w3.org/2000/svg" width="102" height="42" fill="none"><path fill="#71717A" d="M.258 41V29.1h3.655c2.096 0 3.638.533 4.624 1.598.997 1.066 1.496 2.528 1.496 4.386 0 1.825-.499 3.27-1.496 4.335-.986 1.055-2.528 1.582-4.624 1.582H.258Zm1.428-1.19h2.193c1.156 0 2.074-.187 2.754-.56.691-.386 1.184-.93 1.479-1.633.294-.713.442-1.558.442-2.532 0-.998-.148-1.854-.442-2.568a3.274 3.274 0 0 0-1.48-1.649c-.68-.385-1.597-.577-2.753-.577H1.686v9.52ZM12.095 41V29.1h1.666l4.284 8.297 4.25-8.296h1.683V41H22.55v-9.35l-3.978 7.65H17.5l-3.978-7.634V41h-1.428Zm22.683.205c-.872 0-1.632-.16-2.278-.477-.646-.317-1.144-.759-1.496-1.325-.351-.567-.527-1.224-.527-1.972h1.496c0 .464.108.895.323 1.291.216.386.527.697.935.935.42.227.935.34 1.547.34.805 0 1.428-.192 1.87-.578.442-.385.663-.866.663-1.444 0-.477-.102-.856-.306-1.14a2.238 2.238 0 0 0-.833-.714 6.506 6.506 0 0 0-1.19-.476 39.582 39.582 0 0 1-1.394-.459c-.918-.317-1.598-.708-2.04-1.172-.442-.477-.663-1.094-.663-1.854-.011-.634.136-1.195.442-1.682a3.051 3.051 0 0 1 1.292-1.157c.567-.283 1.236-.425 2.006-.425.76 0 1.417.142 1.972.425a3.14 3.14 0 0 1 1.31 1.173c.317.5.481 1.066.492 1.7h-1.496a2.03 2.03 0 0 0-.255-.969 1.961 1.961 0 0 0-.782-.799c-.34-.203-.77-.305-1.292-.305-.646-.012-1.178.152-1.598.492-.408.34-.612.81-.612 1.412 0 .51.142.9.425 1.172.295.272.703.5 1.224.68.522.17 1.122.369 1.802.595a8.683 8.683 0 0 1 1.53.715 2.93 2.93 0 0 1 1.054 1.053c.261.431.391.98.391 1.65a3.18 3.18 0 0 1-.442 1.614c-.294.5-.742.907-1.343 1.224-.589.318-1.331.477-2.227.477Zm8.757 0c-.702 0-1.286-.12-1.75-.358-.465-.238-.81-.555-1.038-.952a2.56 2.56 0 0 1-.34-1.292c0-.86.33-1.524.986-1.989.658-.464 1.553-.697 2.686-.697h2.278v-.102c0-.736-.192-1.291-.578-1.665-.385-.386-.9-.578-1.547-.578-.555 0-1.037.141-1.445.424-.396.273-.646.675-.748 1.207h-1.462c.057-.611.261-1.127.612-1.547a3.46 3.46 0 0 1 1.343-.951c.533-.227 1.1-.34 1.7-.34 1.18 0 2.063.317 2.652.951.601.624.901 1.457.901 2.5V41H46.51l-.085-1.513a3.375 3.375 0 0 1-1.054 1.224c-.453.33-1.065.494-1.836.494Zm.221-1.207c.544 0 1.01-.142 1.394-.425.397-.284.697-.652.901-1.105.204-.454.306-.93.306-1.429v-.017h-2.159c-.838 0-1.433.148-1.785.443-.34.283-.51.64-.51 1.07 0 .443.16.8.476 1.072.33.26.788.39 1.377.39ZM49.928 41v-8.43h1.292l.085 1.512a3.062 3.062 0 0 1 1.173-1.258 3.304 3.304 0 0 1 1.734-.459c.997 0 1.79.306 2.38.919.6.6.9 1.53.9 2.788V41h-1.427v-4.777c0-1.757-.726-2.635-2.176-2.635-.726 0-1.332.266-1.82.799-.475.52-.713 1.269-.713 2.244V41h-1.428Zm12.958.205c-1.009 0-1.847-.255-2.516-.765-.668-.51-1.06-1.202-1.173-2.075h1.462c.09.442.323.828.697 1.157.386.317.901.476 1.547.476.6 0 1.043-.125 1.326-.374.284-.261.425-.567.425-.919 0-.51-.187-.85-.56-1.02-.363-.17-.88-.323-1.548-.459a8.771 8.771 0 0 1-1.36-.39 3.147 3.147 0 0 1-1.139-.715c-.306-.317-.459-.73-.459-1.24 0-.737.272-1.338.816-1.803.555-.476 1.303-.714 2.244-.714.895 0 1.627.227 2.193.68.578.443.913 1.077 1.003 1.905h-1.41c-.058-.431-.245-.765-.562-1.003-.306-.25-.72-.374-1.24-.374-.51 0-.907.107-1.19.322a1.032 1.032 0 0 0-.409.85c0 .34.176.607.527.8.363.192.85.357 1.462.492.522.114 1.015.255 1.48.425.475.16.86.403 1.155.732.306.317.46.782.46 1.394.01.759-.279 1.388-.868 1.886-.578.488-1.365.732-2.363.732Z"/><path fill="#27272A" d="M.7 18V.5h5.975c2.05 0 3.734.367 5.05 1.1 1.334.717 2.317 1.734 2.95 3.05.65 1.3.975 2.834.975 4.6 0 1.767-.325 3.309-.975 4.625-.633 1.3-1.617 2.317-2.95 3.05-1.316.717-3 1.075-5.05 1.075H.7Zm3.2-2.75h2.625c1.467 0 2.625-.233 3.475-.7a4.123 4.123 0 0 0 1.825-2.05c.367-.9.55-1.983.55-3.25 0-1.25-.183-2.325-.55-3.225A4.109 4.109 0 0 0 10 3.95c-.85-.483-2.008-.725-3.475-.725H3.9V15.25ZM18.474 18V.5h3.8l5.575 11.1 5.5-11.1h3.8V18h-3.2V5.925L29.074 15.5h-2.525l-4.875-9.575V18h-3.2Zm34.002.3c-1.283 0-2.417-.216-3.4-.65-.983-.45-1.758-1.083-2.325-1.9-.567-.833-.858-1.841-.875-3.025h3.375c.033.817.325 1.508.875 2.075.567.55 1.342.825 2.325.825.85 0 1.525-.2 2.025-.6.5-.417.75-.966.75-1.65 0-.716-.225-1.275-.675-1.675-.433-.4-1.017-.725-1.75-.975l-2.35-.8c-1.35-.466-2.383-1.066-3.1-1.8-.7-.733-1.05-1.708-1.05-2.925-.017-1.033.225-1.916.725-2.65.517-.75 1.217-1.325 2.1-1.725.883-.416 1.9-.625 3.05-.625 1.167 0 2.192.209 3.075.625.9.417 1.6 1 2.1 1.75.517.75.792 1.642.825 2.675h-3.425c-.017-.616-.258-1.158-.725-1.625-.45-.483-1.083-.725-1.9-.725-.7-.016-1.292.159-1.775.525-.467.35-.7.867-.7 1.55 0 .584.183 1.05.55 1.4.367.334.867.617 1.5.85.633.234 1.358.484 2.175.75.867.3 1.658.65 2.375 1.05.717.4 1.292.934 1.725 1.6.433.65.65 1.492.65 2.525 0 .917-.233 1.767-.7 2.55-.467.784-1.158 1.417-2.075 1.9-.917.467-2.042.7-3.375.7Zm13.142 0c-1.067 0-1.942-.166-2.625-.5-.683-.35-1.192-.808-1.525-1.375a3.63 3.63 0 0 1-.5-1.875c0-1.15.45-2.083 1.35-2.8.9-.716 2.25-1.075 4.05-1.075h3.15v-.3c0-.85-.242-1.475-.725-1.875-.483-.4-1.083-.6-1.8-.6-.65 0-1.217.159-1.7.475-.483.3-.783.75-.9 1.35h-3.125c.083-.9.383-1.683.9-2.35a5.103 5.103 0 0 1 2.05-1.525c.833-.366 1.767-.55 2.8-.55 1.767 0 3.158.442 4.175 1.325 1.017.884 1.525 2.134 1.525 3.75V18h-2.725l-.3-2a4.585 4.585 0 0 1-1.55 1.65c-.65.434-1.492.65-2.525.65Zm.725-2.5c.917 0 1.625-.3 2.125-.9.517-.6.842-1.341.975-2.225h-2.725c-.85 0-1.458.159-1.825.475-.367.3-.55.675-.55 1.125 0 .483.183.858.55 1.125.367.267.85.4 1.45.4Zm9.429 2.2V5.6h2.825l.25 2.1a4.385 4.385 0 0 1 1.65-1.75c.733-.433 1.591-.65 2.575-.65 1.533 0 2.725.484 3.575 1.45.85.967 1.275 2.384 1.275 4.25v7h-3.2v-6.7c0-1.067-.217-1.883-.65-2.45-.434-.566-1.109-.85-2.025-.85-.9 0-1.642.317-2.225.95-.567.634-.85 1.517-.85 2.65V18h-3.2Zm20.335.3c-1.1 0-2.067-.175-2.9-.525-.834-.366-1.5-.866-2-1.5-.5-.633-.8-1.366-.9-2.2h3.225c.1.484.366.9.8 1.25.45.334 1.025.5 1.725.5.7 0 1.208-.141 1.525-.425.333-.283.5-.608.5-.975 0-.533-.234-.892-.7-1.075-.467-.2-1.117-.391-1.95-.575a21.307 21.307 0 0 1-1.625-.425 8.349 8.349 0 0 1-1.525-.625c-.45-.266-.817-.6-1.1-1-.284-.416-.425-.925-.425-1.525 0-1.1.433-2.025 1.3-2.775.883-.75 2.116-1.125 3.7-1.125 1.466 0 2.633.342 3.5 1.025.883.684 1.408 1.625 1.575 2.825h-3.025c-.184-.916-.875-1.375-2.075-1.375-.6 0-1.067.117-1.4.35-.317.234-.475.525-.475.875 0 .367.241.659.725.875.483.217 1.125.417 1.925.6.866.2 1.658.425 2.375.675.733.233 1.316.592 1.75 1.075.433.467.65 1.142.65 2.025a3.491 3.491 0 0 1-.6 2.075c-.417.617-1.017 1.1-1.8 1.45-.784.35-1.709.525-2.775.525Z"/></svg>