<svg width="125" height="84" viewBox="0 0 125 84" fill="none" xmlns="http://www.w3.org/2000/svg">
<path d="M19.82 17.625C19.468 17.625 19.196 17.5343 19.004 17.353C18.8227 17.161 18.732 16.889 18.732 16.537V7.433C18.732 7.081 18.8227 6.81433 19.004 6.633C19.196 6.441 19.468 6.345 19.82 6.345H25.532C25.7987 6.345 26.0013 6.41433 26.14 6.553C26.2893 6.69167 26.364 6.889 26.364 7.145C26.364 7.41167 26.2893 7.61967 26.14 7.769C26.0013 7.90767 25.7987 7.977 25.532 7.977H20.7V11.081H25.18C25.4573 11.081 25.6653 11.1503 25.804 11.289C25.9427 11.4277 26.012 11.6303 26.012 11.897C26.012 12.1637 25.9427 12.3663 25.804 12.505C25.6653 12.6437 25.4573 12.713 25.18 12.713H20.7V15.993H25.532C25.7987 15.993 26.0013 16.0623 26.14 16.201C26.2893 16.3397 26.364 16.5423 26.364 16.809C26.364 17.0757 26.2893 17.2783 26.14 17.417C26.0013 17.5557 25.7987 17.625 25.532 17.625H19.82ZM28.5848 17.753C28.3181 17.753 28.0994 17.6837 27.9288 17.545C27.7581 17.3957 27.6568 17.2143 27.6248 17.001C27.6034 16.777 27.6781 16.553 27.8488 16.329L31.5128 11.449V12.329L28.0247 7.657C27.8541 7.42233 27.7794 7.19833 27.8008 6.985C27.8221 6.761 27.9181 6.57967 28.0888 6.441C28.2594 6.29167 28.4728 6.217 28.7288 6.217C28.9421 6.217 29.1288 6.27033 29.2888 6.377C29.4594 6.473 29.6301 6.63833 29.8008 6.873L32.6808 10.841H32.0248L34.8888 6.873C35.0594 6.63833 35.2248 6.473 35.3848 6.377C35.5554 6.27033 35.7528 6.217 35.9768 6.217C36.2434 6.217 36.4621 6.28633 36.6328 6.425C36.8034 6.56367 36.8994 6.745 36.9208 6.969C36.9421 7.18233 36.8621 7.41167 36.6808 7.657L33.1928 12.329V11.449L36.8408 16.329C37.0114 16.553 37.0861 16.777 37.0648 17.001C37.0434 17.2143 36.9474 17.3957 36.7768 17.545C36.6061 17.6837 36.3821 17.753 36.1048 17.753C35.9021 17.753 35.7154 17.6997 35.5448 17.593C35.3848 17.4863 35.2141 17.3157 35.0328 17.081L31.9928 12.921H32.6968L29.6728 17.081C29.5021 17.3157 29.3314 17.4863 29.1608 17.593C28.9901 17.6997 28.7981 17.753 28.5848 17.753ZM43.7456 17.785C42.5723 17.785 41.5643 17.5503 40.7216 17.081C39.8896 16.601 39.2496 15.929 38.8016 15.065C38.3536 14.1903 38.1296 13.161 38.1296 11.977C38.1296 11.0917 38.2576 10.297 38.5136 9.593C38.7696 8.87833 39.1376 8.27033 39.6176 7.769C40.0976 7.257 40.6843 6.86767 41.3776 6.601C42.0816 6.32367 42.871 6.185 43.7456 6.185C44.3323 6.185 44.9083 6.25967 45.4736 6.409C46.039 6.55833 46.535 6.77167 46.9616 7.049C47.1856 7.18767 47.335 7.35833 47.4096 7.561C47.4843 7.753 47.5003 7.945 47.4576 8.137C47.415 8.31833 47.3243 8.473 47.1856 8.601C47.0576 8.729 46.8923 8.80367 46.6896 8.825C46.4976 8.83567 46.2843 8.76633 46.0496 8.617C45.719 8.40367 45.3616 8.249 44.9776 8.153C44.5936 8.057 44.2043 8.009 43.8096 8.009C43.0523 8.009 42.4123 8.16367 41.8896 8.473C41.367 8.78233 40.9723 9.23033 40.7056 9.817C40.439 10.4037 40.3056 11.1237 40.3056 11.977C40.3056 12.8197 40.439 13.5397 40.7056 14.137C40.9723 14.7343 41.367 15.1877 41.8896 15.497C42.4123 15.8063 43.0523 15.961 43.8096 15.961C44.215 15.961 44.615 15.913 45.0096 15.817C45.4043 15.7103 45.7776 15.5503 46.1296 15.337C46.3643 15.1983 46.5723 15.1397 46.7536 15.161C46.9456 15.1717 47.1056 15.2357 47.2336 15.353C47.3616 15.4703 47.447 15.6197 47.4896 15.801C47.5323 15.9717 47.5216 16.153 47.4576 16.345C47.3936 16.5263 47.2656 16.6863 47.0736 16.825C46.647 17.1343 46.135 17.3743 45.5376 17.545C44.951 17.705 44.3536 17.785 43.7456 17.785ZM50.4606 17.625C50.1086 17.625 49.8366 17.5343 49.6446 17.353C49.4633 17.161 49.3726 16.889 49.3726 16.537V7.433C49.3726 7.081 49.4633 6.81433 49.6446 6.633C49.8366 6.441 50.1086 6.345 50.4606 6.345H56.1726C56.4393 6.345 56.642 6.41433 56.7806 6.553C56.93 6.69167 57.0046 6.889 57.0046 7.145C57.0046 7.41167 56.93 7.61967 56.7806 7.769C56.642 7.90767 56.4393 7.977 56.1726 7.977H51.3406V11.081H55.8206C56.098 11.081 56.306 11.1503 56.4446 11.289C56.5833 11.4277 56.6526 11.6303 56.6526 11.897C56.6526 12.1637 56.5833 12.3663 56.4446 12.505C56.306 12.6437 56.098 12.713 55.8206 12.713H51.3406V15.993H56.1726C56.4393 15.993 56.642 16.0623 56.7806 16.201C56.93 16.3397 57.0046 16.5423 57.0046 16.809C57.0046 17.0757 56.93 17.2783 56.7806 17.417C56.642 17.5557 56.4393 17.625 56.1726 17.625H50.4606ZM59.9595 17.625C59.6288 17.625 59.3728 17.5343 59.1915 17.353C59.0102 17.161 58.9195 16.8997 58.9195 16.569V7.337C58.9195 6.99567 59.0048 6.73967 59.1755 6.569C59.3568 6.38767 59.6128 6.297 59.9435 6.297C60.2742 6.297 60.5248 6.38767 60.6955 6.569C60.8768 6.73967 60.9675 6.99567 60.9675 7.337V15.881H65.6075C65.8955 15.881 66.1142 15.9557 66.2635 16.105C66.4235 16.2543 66.5035 16.4677 66.5035 16.745C66.5035 17.0223 66.4235 17.241 66.2635 17.401C66.1142 17.5503 65.8955 17.625 65.6075 17.625H59.9595ZM68.9439 17.625C68.6132 17.625 68.3572 17.5343 68.1759 17.353C67.9945 17.161 67.9039 16.8997 67.9039 16.569V7.337C67.9039 6.99567 67.9892 6.73967 68.1599 6.569C68.3412 6.38767 68.5972 6.297 68.9279 6.297C69.2585 6.297 69.5092 6.38767 69.6799 6.569C69.8612 6.73967 69.9519 6.99567 69.9519 7.337V15.881H74.5919C74.8799 15.881 75.0985 15.9557 75.2479 16.105C75.4079 16.2543 75.4879 16.4677 75.4879 16.745C75.4879 17.0223 75.4079 17.241 75.2479 17.401C75.0985 17.5503 74.8799 17.625 74.5919 17.625H68.9439ZM77.9763 17.625C77.6243 17.625 77.3523 17.5343 77.1603 17.353C76.9789 17.161 76.8883 16.889 76.8883 16.537V7.433C76.8883 7.081 76.9789 6.81433 77.1603 6.633C77.3523 6.441 77.6243 6.345 77.9763 6.345H83.6883C83.9549 6.345 84.1576 6.41433 84.2963 6.553C84.4456 6.69167 84.5203 6.889 84.5203 7.145C84.5203 7.41167 84.4456 7.61967 84.2963 7.769C84.1576 7.90767 83.9549 7.977 83.6883 7.977H78.8563V11.081H83.3363C83.6136 11.081 83.8216 11.1503 83.9603 11.289C84.0989 11.4277 84.1683 11.6303 84.1683 11.897C84.1683 12.1637 84.0989 12.3663 83.9603 12.505C83.8216 12.6437 83.6136 12.713 83.3363 12.713H78.8563V15.993H83.6883C83.9549 15.993 84.1576 16.0623 84.2963 16.201C84.4456 16.3397 84.5203 16.5423 84.5203 16.809C84.5203 17.0757 84.4456 17.2783 84.2963 17.417C84.1576 17.5557 83.9549 17.625 83.6883 17.625H77.9763ZM87.3951 17.753C87.0858 17.753 86.8458 17.6677 86.6751 17.497C86.5151 17.3263 86.4351 17.081 86.4351 16.761V7.241C86.4351 6.91033 86.5151 6.65967 86.6751 6.489C86.8458 6.30767 87.0645 6.217 87.3311 6.217C87.5765 6.217 87.7578 6.265 87.8751 6.361C88.0031 6.44633 88.1525 6.59567 88.3231 6.809L94.4511 14.761H94.0351V7.193C94.0351 6.88367 94.1151 6.64367 94.2751 6.473C94.4458 6.30233 94.6858 6.217 94.9951 6.217C95.3045 6.217 95.5391 6.30233 95.6991 6.473C95.8591 6.64367 95.9391 6.88367 95.9391 7.193V16.793C95.9391 17.0917 95.8645 17.3263 95.7151 17.497C95.5658 17.6677 95.3631 17.753 95.1071 17.753C94.8618 17.753 94.6645 17.705 94.5151 17.609C94.3765 17.513 94.2218 17.3583 94.0511 17.145L87.9391 9.193H88.3391V16.761C88.3391 17.081 88.2591 17.3263 88.0991 17.497C87.9391 17.6677 87.7045 17.753 87.3951 17.753ZM102.148 17.753C101.817 17.753 101.561 17.6623 101.38 17.481C101.209 17.289 101.124 17.0277 101.124 16.697V8.057H98.0039C97.7265 8.057 97.5079 7.98233 97.3479 7.833C97.1985 7.673 97.1239 7.45967 97.1239 7.193C97.1239 6.91567 97.1985 6.70767 97.3479 6.569C97.5079 6.41967 97.7265 6.345 98.0039 6.345H106.292C106.569 6.345 106.783 6.41967 106.932 6.569C107.092 6.70767 107.172 6.91567 107.172 7.193C107.172 7.45967 107.092 7.673 106.932 7.833C106.783 7.98233 106.569 8.057 106.292 8.057H103.172V16.697C103.172 17.0277 103.087 17.289 102.916 17.481C102.745 17.6623 102.489 17.753 102.148 17.753Z" fill="white"/>
<rect x="4.705" y="29.625" width="21.75" height="21.75" fill="#02B57A"/>
<rect x="28.2675" y="29.625" width="21.75" height="21.75" fill="#02B57A"/>
<rect x="52.1925" y="29.625" width="21.75" height="21.75" fill="#02B57A"/>
<rect x="75.3925" y="29.625" width="21.75" height="21.75" fill="#02B57A"/>
<rect x="109.495" y="29.625" width="10.8" height="21.75" fill="#DCDCE5"/>
<rect x="98.7051" y="29.625" width="10.8" height="21.75" fill="#02B57A"/>
<path fill-rule="evenodd" clip-rule="evenodd" d="M17.7323 38.4047H23.555L18.8652 41.8246L15.9652 43.922L11.2527 47.3419L13.0425 41.8246L8.33 38.4047H14.1527L15.9425 32.8875L17.7323 38.4047ZM19.2503 43.1015L15.9425 43.945L20.6324 47.3876L19.2503 43.1015Z" fill="white"/>
<path fill-rule="evenodd" clip-rule="evenodd" d="M40.9323 38.4047H46.755L42.0651 41.8246L39.1651 43.922L34.4526 47.3419L36.2425 41.8246L31.53 38.4047H37.3526L39.1425 32.8875L40.9323 38.4047ZM42.4505 43.1015L39.1426 43.945L43.8325 47.3876L42.4505 43.1015Z" fill="white"/>
<path fill-rule="evenodd" clip-rule="evenodd" d="M64.4948 38.4047H70.3175L65.6276 41.8246L62.7276 43.922L58.0151 47.3419L59.805 41.8246L55.0925 38.4047H60.9151L62.705 32.8875L64.4948 38.4047ZM66.013 43.1015L62.7051 43.945L67.395 47.3876L66.013 43.1015Z" fill="white"/>
<path fill-rule="evenodd" clip-rule="evenodd" d="M88.0573 38.4047H93.88L89.1901 41.8246L86.2901 43.922L81.5776 47.3419L83.3675 41.8246L78.655 38.4047H84.4776L86.2675 32.8875L88.0573 38.4047ZM89.5755 43.1015L86.2676 43.945L90.9575 47.3876L89.5755 43.1015Z" fill="white"/>
<path fill-rule="evenodd" clip-rule="evenodd" d="M111.257 38.4047H117.08L112.39 41.8246L109.49 43.922L104.777 47.3419L106.567 41.8246L101.855 38.4047H107.677L109.467 32.8875L111.257 38.4047ZM112.775 43.1015L109.467 43.945L114.157 47.3876L112.775 43.1015Z" fill="white"/>
<path fill-rule="evenodd" clip-rule="evenodd" d="M37.801 66.9863H48.127V68.9094H44.0668V79.72H41.8342V68.9094H37.792V66.9863H37.801ZM47.6858 70.4997H49.5943V72.279H49.6303C49.6934 72.0273 49.8104 71.7847 49.9814 71.5511C50.1525 71.3174 50.3595 71.0928 50.6026 70.904C50.8457 70.7064 51.1158 70.5536 51.4129 70.4278C51.7099 70.311 52.016 70.248 52.3221 70.248C52.5562 70.248 52.7272 70.257 52.8173 70.266C52.8592 70.2702 52.9011 70.2763 52.944 70.2826C52.9931 70.2898 53.0435 70.2972 53.0964 70.302V72.261C52.9523 72.234 52.8083 72.2161 52.6552 72.1981C52.5022 72.1801 52.3581 72.1711 52.2141 72.1711C51.872 72.1711 51.5479 72.243 51.2418 72.3778C50.9357 72.5126 50.6746 72.7193 50.4496 72.9799C50.2245 73.2495 50.0445 73.573 49.9094 73.9684C49.7744 74.3638 49.7114 74.8131 49.7114 75.3253V79.7107H47.6768V70.4997H47.6858ZM60.4517 79.72H62.4502V70.509H60.4156V75.8558C60.4156 76.2153 60.3796 76.5478 60.2986 76.8533C60.2176 77.1589 60.0916 77.4285 59.9115 77.6441C59.7404 77.8688 59.5064 78.0395 59.2183 78.1743C58.9302 78.3091 58.5791 78.372 58.147 78.372C57.5888 78.372 57.1477 78.2013 56.8416 77.8688C56.5265 77.5363 56.3735 76.9612 56.3735 76.1524V70.5H54.3389V76.3501C54.3389 77.5633 54.6089 78.4709 55.1491 79.073C55.6893 79.675 56.5715 79.9716 57.7869 79.9716C58.3 79.9716 58.8042 79.8278 59.2993 79.5492C59.7945 79.2707 60.1636 78.9022 60.4156 78.4349H60.4517V79.72ZM65.9164 76.7631C65.9794 77.3562 66.2045 77.7696 66.5916 78.0122C66.9877 78.2459 67.4558 78.3717 68.005 78.3717C68.194 78.3717 68.4101 78.3537 68.6532 78.3268C68.8962 78.2998 69.1303 78.2369 69.3374 78.156C69.5534 78.0751 69.7245 77.9493 69.8685 77.7876C70.0036 77.6258 70.0666 77.4191 70.0576 77.1585C70.0486 76.8979 69.9496 76.6823 69.7695 76.5205C69.5895 76.3498 69.3644 76.224 69.0853 76.1161C68.8062 76.0173 68.4911 75.9274 68.131 75.8555C67.836 75.7966 67.5409 75.7317 67.2409 75.6657L67.0417 75.6219C66.6636 75.541 66.2945 75.4332 65.9434 75.3163C65.5923 75.1995 65.2772 75.0378 64.9981 74.8311C64.719 74.6334 64.494 74.3728 64.3319 74.0583C64.1609 73.7437 64.0798 73.3573 64.0798 72.89C64.0798 72.3868 64.2059 71.9734 64.4489 71.6319C64.692 71.2905 65.0071 71.0209 65.3762 70.8142C65.7543 70.6075 66.1684 70.4637 66.6276 70.3739C67.0867 70.293 67.5278 70.248 67.942 70.248C68.4191 70.248 68.8782 70.302 69.3104 70.4008C69.7425 70.4997 70.1386 70.6614 70.4897 70.8951C70.8408 71.1197 71.1289 71.4163 71.363 71.7757C71.597 72.1352 71.7411 72.5755 71.8041 73.0877H69.6795C69.5805 72.6025 69.3644 72.27 69.0133 72.1082C68.6622 71.9375 68.2571 71.8566 67.8069 71.8566C67.6629 71.8566 67.4918 71.8656 67.2938 71.8925C67.0957 71.9195 66.9157 71.9644 66.7356 72.0273C66.5646 72.0902 66.4205 72.1891 66.2945 72.3149C66.1775 72.4407 66.1144 72.6025 66.1144 72.8092C66.1144 73.0608 66.2045 73.2585 66.3755 73.4112C66.5466 73.564 66.7716 73.6898 67.0507 73.7977C67.3298 73.8965 67.6449 73.9864 68.005 74.0583C68.2874 74.1146 68.5754 74.1765 68.8689 74.2396L68.8692 74.2397L68.8692 74.2397L68.8692 74.2397L69.1123 74.2919C69.4814 74.3728 69.8415 74.4806 70.2016 74.5974C70.5617 74.7143 70.8768 74.876 71.1559 75.0827C71.435 75.2894 71.6601 75.541 71.8311 75.8465C72.0022 76.1521 72.0922 76.5385 72.0922 76.9878C72.0922 77.536 71.9662 77.9943 71.7141 78.3807C71.462 78.7581 71.1379 79.0726 70.7418 79.3063C70.3457 79.5399 69.8955 79.7197 69.4094 79.8275C68.9233 79.9353 68.4371 79.9892 67.96 79.9892C67.3748 79.9892 66.8346 79.9263 66.3395 79.7915C65.8444 79.6567 65.4122 79.459 65.0521 79.1984C64.692 78.9289 64.4039 78.5964 64.1969 78.201C63.9898 77.8056 63.8818 77.3293 63.8638 76.7811H65.9164V76.7631ZM74.1717 70.5H72.6502V72.0367H74.1897V77.4734C74.1987 77.8508 74.2437 78.1923 74.3067 78.4888C74.3788 78.7854 74.4958 79.028 74.6848 79.2257C74.8649 79.4234 75.126 79.5762 75.4501 79.675C75.7742 79.7739 76.2063 79.8278 76.7465 79.8278C76.9715 79.8278 77.1876 79.8188 77.4036 79.7919C77.5167 79.7771 77.6352 79.7651 77.7561 79.7528C77.8566 79.7426 77.9587 79.7322 78.0608 79.72V78.1474C77.9168 78.1833 77.7728 78.2013 77.6287 78.2103C77.4847 78.2193 77.3406 78.2193 77.1966 78.2193C76.9625 78.2193 76.7915 78.1923 76.6564 78.1384C76.5214 78.0845 76.4224 78.0036 76.3593 77.8957C76.2963 77.7879 76.2513 77.6531 76.2333 77.5003C76.2153 77.3386 76.2063 77.1589 76.2063 76.9432V72.0187H78.0428V70.5H76.2063V67.7322H74.1717V70.5ZM79.4834 70.4997H81.41V71.7488H81.446C81.7341 71.2096 82.1302 70.8322 82.6433 70.5985C83.1565 70.3649 83.7056 70.248 84.3088 70.248C85.038 70.248 85.6682 70.3739 86.2084 70.6345C86.7485 70.8861 87.1987 71.2365 87.5588 71.6859C87.9189 72.1352 88.18 72.6564 88.36 73.2495C88.5401 73.8426 88.6301 74.4806 88.6301 75.1546C88.6301 75.7746 88.5491 76.3767 88.387 76.9519C88.225 77.536 87.9819 78.0482 87.6578 78.4975C87.3337 78.9468 86.9196 79.2973 86.4154 79.5669C85.9113 79.8365 85.3261 79.9713 84.6419 79.9713C84.3448 79.9713 84.0477 79.9443 83.7507 79.8904C83.4536 79.8365 83.1655 79.7466 82.8954 79.6298C82.6253 79.513 82.3642 79.3602 82.1392 79.1715C81.9051 78.9828 81.7161 78.7671 81.554 78.5245H81.518V83.1255H79.4834V70.4997ZM86.4335 73.9063C86.5416 74.3017 86.5956 74.7061 86.5956 75.1195C86.5956 75.5238 86.5506 75.9192 86.4696 76.3057C86.3795 76.6921 86.2265 77.0336 86.0194 77.3391C85.8124 77.6356 85.5513 77.8873 85.2272 78.076C84.9031 78.2647 84.516 78.3635 84.0478 78.3635C83.6337 78.3635 83.2646 78.2827 82.9495 78.1119C82.6344 77.9502 82.3643 77.7255 82.1393 77.4379C81.9052 77.1504 81.7432 76.8089 81.6261 76.4135C81.5091 76.0181 81.4551 75.5868 81.4551 75.1195C81.4551 74.131 81.6711 73.3402 82.1033 72.7471C82.5354 72.154 83.1836 71.8574 84.0388 71.8574C84.453 71.8574 84.8221 71.9563 85.1462 72.136C85.4613 72.3157 85.7313 72.5584 85.9474 72.8639C86.1635 73.1694 86.3255 73.5109 86.4335 73.9063ZM90.1874 66.9863H92.222V68.9094H90.1874V66.9863ZM92.222 70.5H90.1874V79.72H92.222V70.5ZM94.0405 66.9863H96.0751V79.72H94.0405V66.9863ZM100.342 79.6028C100.918 79.8455 101.576 79.9713 102.314 79.9713C103.052 79.9713 103.709 79.8455 104.285 79.6028C104.862 79.3602 105.357 79.0277 105.753 78.5964C106.149 78.165 106.455 77.6528 106.662 77.0597C106.869 76.4666 106.977 75.8106 106.977 75.1007C106.977 74.3997 106.869 73.7527 106.662 73.1596C106.455 72.5665 106.149 72.0543 105.753 71.623C105.348 71.2006 104.862 70.8591 104.285 70.6165C103.709 70.3739 103.052 70.248 102.314 70.248C101.576 70.248 100.918 70.3739 100.342 70.6165C99.766 70.8591 99.2709 71.1916 98.8748 71.623C98.4786 72.0543 98.1725 72.5665 97.9655 73.1596C97.7584 73.7527 97.6504 74.3997 97.6504 75.1007C97.6504 75.8106 97.7584 76.4666 97.9655 77.0597C98.1725 77.6528 98.4786 78.165 98.8748 78.5964C99.2799 79.0187 99.766 79.3602 100.342 79.6028ZM102.314 78.3635C102.764 78.3635 103.161 78.2647 103.494 78.076C103.827 77.8873 104.097 77.6356 104.313 77.3301C104.529 77.0246 104.682 76.6741 104.79 76.2877C104.889 75.9013 104.943 75.5059 104.943 75.1015C104.943 74.7061 104.889 74.3197 104.79 73.9243C104.691 73.5289 104.529 73.1874 104.313 72.8819C104.097 72.5763 103.827 72.3337 103.494 72.145C103.161 71.9563 102.764 71.8574 102.314 71.8574C101.864 71.8574 101.468 71.9563 101.135 72.145C100.802 72.3337 100.532 72.5853 100.316 72.8819C100.1 73.1874 99.9466 73.5289 99.8386 73.9243C99.7396 74.3197 99.6855 74.7061 99.6855 75.1015C99.6855 75.5059 99.7396 75.9013 99.8386 76.2877C99.9376 76.6741 100.1 77.0246 100.316 77.3301C100.532 77.6356 100.802 77.8873 101.135 78.076C101.468 78.2737 101.864 78.3635 102.314 78.3635ZM109.111 70.5H107.59V72.0367H109.129V77.4734C109.138 77.8508 109.183 78.1923 109.246 78.4888C109.318 78.7854 109.435 79.028 109.624 79.2257C109.804 79.4234 110.065 79.5762 110.389 79.675C110.713 79.7739 111.146 79.8278 111.686 79.8278C111.911 79.8278 112.127 79.8188 112.343 79.7919C112.456 79.7771 112.574 79.7651 112.695 79.7528C112.796 79.7426 112.898 79.7322 113 79.72V78.1474C112.856 78.1833 112.712 78.2013 112.568 78.2103C112.424 78.2193 112.28 78.2193 112.136 78.2193C111.902 78.2193 111.731 78.1923 111.596 78.1384C111.461 78.0845 111.362 78.0036 111.299 77.8957C111.236 77.7879 111.191 77.6531 111.173 77.5003C111.155 77.3386 111.146 77.1589 111.146 76.9432V72.0187H112.982V70.5H111.146V67.7322H109.111V70.5Z" fill="white"/>
<path d="M35.4242 66.9855H26.0974L23.2166 58.125L20.3267 66.9855L11 66.9765L18.5532 72.4582L15.6634 81.3098L23.2166 75.8371L30.7608 81.3098L27.88 72.4582L35.4242 66.9855Z" fill="#00B67A"/>
<path d="M28.5284 74.4629L27.8802 72.459L23.2168 75.8378L28.5284 74.4629Z" fill="#005128"/>
</svg>
